<svg xmlns="http://www.w3.org/2000/svg" width="460" height="250" viewBox="10 140 460 250" version="1.1">
	<path fill-opacity="0.137" d="M 202.949 169.075 C 197.938 176.455, 194.005 185.098, 193.985 188.779 C 193.957 193.902, 169.194 211.748, 152.305 218.815 C 132.208 227.226, 110.471 221.640, 99.775 205.315 C 97.318 201.567, 93.670 195.987, 91.668 192.917 C 87.138 185.970, 84.260 184.446, 79.460 186.452 C 77.557 187.247, 76 188.414, 76 189.045 C 76 189.675, 75.035 191.546, 73.856 193.202 C 71.704 196.224, 62.435 221.451, 61.071 228 C 60.670 229.925, 58.719 236.225, 56.735 242 C 52.918 253.116, 50.004 265.739, 49.994 271.208 C 49.989 273.777, 49.362 274.856, 47.143 276.118 C 44.936 277.373, 44.147 278.719, 43.625 282.118 C 41.271 297.461, 35.737 308.616, 25.665 318.322 L 19.623 324.144 21.386 327.418 C 23.725 331.761, 38.313 346.201, 44.471 350.268 C 51.297 354.777, 51.373 355.990, 44.833 356.044 C 35.767 356.118, 22.037 360.339, 22.006 363.061 C 21.986 364.879, 44.753 368.266, 71.500 370.424 C 94.482 372.278, 113.518 372.595, 177.500 372.189 C 221.500 371.910, 229.306 372.111, 254 374.156 C 307.678 378.602, 403.101 375.291, 434 367.911 C 438.675 366.794, 443.106 365.832, 443.847 365.774 C 445.770 365.621, 447.625 361.225, 446.317 359.917 C 444.479 358.079, 418.775 355.206, 402.750 355.047 C 400.137 355.021, 398.014 354.663, 398.031 354.250 C 398.084 352.970, 406.358 347.299, 409.129 346.644 C 410.576 346.302, 414.017 343.992, 416.776 341.511 C 419.536 339.030, 422.324 337, 422.973 337 C 424.985 337, 435.185 328.606, 445.656 318.332 C 453.960 310.183, 456.046 307.509, 457.838 302.712 C 463.053 288.753, 458.617 267.060, 449.573 262.292 C 446.915 260.891, 438.818 259.531, 424 257.997 C 418.225 257.399, 402.925 255.818, 390 254.484 C 361.183 251.509, 351.816 249.816, 349.088 247.088 C 346.677 244.677, 342.947 243.586, 339.421 244.260 C 335.897 244.934, 326.777 242.104, 325.184 239.842 C 322.920 236.627, 316.072 233.727, 312.222 234.351 C 307.239 235.160, 295.789 229.319, 294.029 225.070 C 292.540 221.475, 286.632 217.512, 283.187 217.797 C 280.327 218.033, 267 209.535, 267 207.474 C 267 205.426, 260.684 201, 257.761 201 C 256.349 201, 253.875 199.751, 252.216 198.201 C 250.568 196.662, 247.370 194.569, 245.110 193.550 C 242.849 192.530, 241 191.045, 241 190.248 C 241 188.288, 234.596 182, 232.600 182 C 230.742 182, 230.643 181.536, 231.968 179.059 C 233.115 176.917, 229.309 173.304, 219.216 166.953 C 210.175 161.265, 208.066 161.540, 202.949 169.075" stroke="none" fill="#000" fill-rule="evenodd"/>
	<path fill-opacity="0.064" d="M 214 170.809 C 214 172.846, 216.918 177.212, 216.968 175.250 C 216.989 174.418, 218.700 174, 222.083 174 C 225.703 174, 227.048 173.640, 226.754 172.750 C 225.566 169.147, 214 167.387, 214 170.809 M 228.572 181.777 C 227.306 185.760, 223.314 187.498, 215.375 187.522 C 211.409 187.534, 208.355 187.235, 208.588 186.858 C 208.821 186.480, 211.023 186.220, 213.480 186.278 C 215.938 186.337, 218.204 186.129, 218.517 185.817 C 219.023 185.310, 216.202 185.316, 205.281 185.844 C 202.891 185.960, 202.208 186.379, 202.629 187.474 C 203.588 189.974, 194.552 196.077, 192.119 194.574 C 191.580 194.240, 190.856 194.425, 190.510 194.984 C 190.165 195.543, 190.427 196, 191.094 196 C 191.761 196, 191.268 196.900, 190 198 C 187.266 200.372, 186.243 200.617, 188.020 198.476 C 190.196 195.854, 188.463 195.878, 185.996 198.504 C 184.702 199.882, 184.204 201, 184.885 201 C 185.563 201, 185.810 201.498, 185.434 202.107 C 184.946 202.896, 184.532 202.861, 183.992 201.987 C 183.442 201.097, 182.036 201.634, 178.867 203.945 C 153.247 222.632, 136.273 227.309, 118.529 220.571 C 108.975 216.942, 103.939 212.701, 97.515 202.873 C 86.460 185.960, 84.736 184.433, 79.426 186.852 C 76.193 188.325, 76.360 190.353, 80.432 199.115 C 84.156 207.131, 84.096 207.609, 79.250 208.459 C 76.311 208.974, 76 208.794, 76 206.573 C 76 205.223, 75.550 203.840, 75 203.500 C 74.450 203.160, 74 202.432, 74 201.882 C 74 201.332, 74.471 201.173, 75.046 201.528 C 76.182 202.231, 75.904 197.570, 74.740 196.406 C 74.372 196.038, 74.520 194.896, 75.070 193.869 C 76.584 191.041, 75.473 191.632, 73.415 194.750 C 71.414 197.781, 63.706 219.331, 61.523 228 C 60.761 231.025, 58.814 237.100, 57.196 241.500 C 53.977 250.256, 51.566 260.295, 50.517 269.307 C 49.953 274.159, 49.439 275.298, 47.397 276.229 C 46.052 276.842, 44.766 278.278, 44.538 279.421 C 41.275 295.795, 37.914 304.993, 32.907 311.250 C 30.985 313.651, 30.402 315, 31.284 315 C 32.042 315, 33.264 313.875, 34 312.500 C 34.736 311.125, 35.937 310, 36.669 310 C 37.401 310, 38 309.352, 38 308.559 C 38 307.766, 38.450 306.840, 39 306.500 C 39.550 306.160, 40 306.495, 40 307.245 C 40 309.396, 29.251 319.583, 24.920 321.536 C 20.310 323.615, 20.088 325.077, 23.614 330.165 C 25.899 333.462, 34.413 341.095, 32.682 338.295 C 31.843 336.937, 34.561 334.611, 35.970 335.482 C 36.552 335.841, 37.931 337.905, 39.035 340.068 C 40.138 342.231, 41.733 344, 42.579 344 C 43.426 344, 43.871 344.399, 43.570 344.887 C 43.269 345.374, 43.687 346.325, 44.500 347 C 45.313 347.675, 45.771 348.561, 45.518 348.970 C 44.903 349.966, 53.206 354.414, 61.522 357.545 C 68.071 360.009, 68.239 360.023, 67.720 358.039 C 67.375 356.719, 67.671 356, 68.558 356 C 69.313 356, 70.393 355.135, 70.958 354.078 C 71.524 353.021, 72.652 351.491, 73.464 350.679 C 74.767 349.376, 74.590 348.759, 71.958 345.447 C 68.522 341.124, 68.621 340.800, 73.367 340.800 C 77.457 340.800, 79.822 341.874, 78.090 342.944 C 77.385 343.380, 78.368 344.764, 80.733 346.662 L 84.500 349.686 84.603 346.919 C 84.725 343.609, 87.452 340.576, 89.573 341.389 C 90.488 341.741, 92.242 340.798, 93.977 339.023 C 97.029 335.901, 102 333.961, 102 335.892 C 102 336.501, 103.013 336.971, 104.250 336.937 L 106.500 336.873 104.145 335.930 C 102.625 335.321, 101.996 334.452, 102.370 333.479 C 102.814 332.321, 102.369 332.075, 100.454 332.423 C 99.050 332.677, 98.213 332.465, 98.539 331.937 C 98.857 331.422, 99.799 331, 100.632 331 C 102.565 331, 102.026 327.809, 100 327.257 C 98.786 326.926, 98.759 327.029, 99.857 327.799 C 101.951 329.267, 99.501 330.269, 95.802 329.457 L 92.654 328.765 95.827 327.431 C 97.572 326.697, 99 325.587, 99 324.965 C 99 324.343, 98.663 324.007, 98.250 324.219 C 93.954 326.431, 88.924 328.299, 83.282 329.779 C 78.092 331.141, 76.498 331.980, 76.492 333.354 C 76.484 335.367, 73.517 337.438, 71.992 336.495 C 71.446 336.158, 71 336.323, 71 336.862 C 71 337.400, 69.620 338.144, 67.933 338.515 C 64.678 339.230, 61 337.018, 61 334.345 C 61 333.605, 60.550 333, 60 333 C 59.450 333, 59 333.408, 59 333.906 C 59 334.405, 58.100 334.577, 57 334.290 C 55.722 333.956, 54.998 334.260, 54.994 335.133 C 54.990 335.885, 54.348 335.273, 53.566 333.774 C 51.904 330.589, 53.625 321.301, 55.793 321.750 C 56.457 321.888, 57 321.314, 57 320.475 C 57 319.637, 58.125 318.523, 59.500 318 C 60.875 317.477, 62 316.630, 62 316.118 C 62 315.606, 62.787 315.390, 63.750 315.637 C 64.825 315.913, 66.933 314.689, 69.215 312.463 C 71.259 310.470, 73.391 309.124, 73.954 309.472 C 74.559 309.846, 74.734 309.470, 74.382 308.552 C 73.996 307.546, 74.352 307, 75.393 307 C 76.277 307, 77 306.339, 77 305.531 C 77 304.681, 77.591 304.290, 78.406 304.602 C 79.179 304.899, 80.723 304.362, 81.837 303.408 C 83.845 301.688, 83.835 301.660, 80.681 299.951 C 78.931 299.003, 77.093 298.471, 76.595 298.769 C 76.098 299.066, 75.961 298.873, 76.290 298.339 C 76.677 297.714, 79.662 297.727, 84.695 298.376 C 99.868 300.335, 150.895 299.258, 149.505 297.009 C 149.234 296.569, 149.661 295.960, 150.455 295.656 C 151.485 295.261, 151.716 295.589, 151.262 296.801 C 150.707 298.284, 150.840 298.325, 152.313 297.128 C 153.241 296.373, 154 296.090, 154 296.500 C 154 296.910, 154.761 296.627, 155.692 295.872 C 156.842 294.940, 157.143 294.901, 156.633 295.750 C 156.118 296.607, 156.608 296.995, 158.191 296.985 C 160.049 296.972, 160.207 296.780, 159 296 C 157.718 295.172, 157.754 295.028, 159.250 295.015 C 160.213 295.007, 161.007 295.563, 161.015 296.250 C 161.026 297.083, 161.354 297, 162 296 C 162.681 294.947, 162.974 294.883, 162.985 295.784 C 162.995 296.626, 163.947 296.913, 165.750 296.616 C 167.262 296.368, 170.018 296.127, 171.872 296.082 C 174.898 296.008, 175.104 295.829, 173.872 294.336 C 172.627 292.826, 172.710 292.784, 174.771 293.883 C 176.020 294.548, 177.472 294.826, 177.999 294.500 C 178.526 294.175, 181.554 293.689, 184.729 293.421 C 187.903 293.152, 194.550 292.579, 199.500 292.147 C 205.607 291.613, 208.741 291.705, 209.250 292.430 C 209.770 293.172, 210.243 293.125, 210.791 292.279 C 211.318 291.466, 212.892 291.270, 215.498 291.693 C 218.650 292.205, 219.032 292.478, 217.457 293.094 C 216.196 293.587, 216.033 293.872, 217 293.894 C 217.825 293.913, 219.625 293.286, 221 292.500 C 222.375 291.714, 222.938 291.055, 222.250 291.035 C 221.563 291.016, 221 290.348, 221 289.551 C 221 288.672, 218.842 287.422, 215.512 286.372 C 212.494 285.421, 210.194 284.473, 210.402 284.265 C 211.132 283.534, 234.900 291.353, 234.401 292.160 C 234.123 292.609, 234.509 292.742, 235.258 292.455 C 236.007 292.167, 241.768 293.552, 248.060 295.532 C 269.693 302.339, 292.559 307.747, 306.212 309.285 C 307.704 309.454, 309.129 309.796, 309.379 310.046 C 309.972 310.639, 333.046 310.357, 335 309.733 C 336.276 309.325, 340.984 308.382, 351.686 306.391 C 352.888 306.167, 354.149 306.433, 354.488 306.981 C 354.832 307.537, 354.475 307.736, 353.681 307.431 C 352.898 307.131, 352.006 307.542, 351.698 308.344 C 351.114 309.865, 352.587 310.014, 354.766 308.653 C 355.463 308.218, 355.743 307.393, 355.388 306.819 C 355.034 306.246, 355.364 305.384, 356.122 304.904 C 358.113 303.643, 359.217 303.805, 358.485 305.250 C 358.137 305.938, 358.497 305.712, 359.286 304.750 C 360.075 303.788, 361.533 303, 362.527 303 C 363.520 303, 364.032 303.301, 363.664 303.669 C 363.297 304.037, 363.691 305.106, 364.541 306.045 C 365.936 307.587, 365.932 307.812, 364.500 308.362 C 363.287 308.827, 363.151 309.413, 363.922 310.854 C 365.330 313.484, 363.983 314.421, 362.283 311.994 C 360.779 309.846, 359 309.340, 359 311.059 C 359 311.641, 359.419 311.859, 359.931 311.543 C 360.443 311.226, 361.120 311.385, 361.436 311.896 C 361.751 312.407, 361.220 312.673, 360.255 312.489 C 359.290 312.304, 358.136 312.119, 357.691 312.077 C 357.246 312.034, 357.160 311.550, 357.500 311 C 358.582 309.249, 356.377 309.926, 354.600 311.890 C 353.146 313.496, 352.380 313.622, 349.483 312.733 C 347.608 312.158, 346.281 311.355, 346.532 310.949 C 346.783 310.542, 346.331 309.957, 345.526 309.648 C 344.722 309.340, 343.779 309.548, 343.431 310.112 C 343.083 310.675, 342.220 310.915, 341.514 310.644 C 340.807 310.373, 339.278 310.817, 338.115 311.632 C 336.156 313.004, 335.548 312.740, 335.906 310.676 C 335.985 310.222, 335.581 310.141, 335.008 310.495 C 334.436 310.849, 334.207 311.526, 334.500 312.001 C 334.794 312.475, 334.013 313.581, 332.767 314.458 C 330.609 315.977, 330.600 316.039, 332.567 315.743 C 333.704 315.572, 335.943 314.403, 337.543 313.145 C 339.209 311.835, 340.605 311.314, 340.809 311.927 C 341.005 312.515, 342.203 312.736, 343.470 312.418 C 345.094 312.011, 346.192 312.436, 347.190 313.860 C 348.603 315.879, 350.391 316.137, 352.750 314.663 C 353.485 314.204, 354 314.368, 354 315.063 C 354 315.944, 354.382 315.928, 355.500 315 C 356.325 314.315, 357 314.051, 357 314.413 C 357 314.774, 357.900 314.589, 359 314 C 360.171 313.373, 361 313.322, 361 313.876 C 361 314.830, 363.502 314.831, 364.455 313.879 C 364.737 313.597, 367.035 313.475, 369.562 313.609 C 372.998 313.790, 374.031 313.522, 373.657 312.547 C 373.381 311.830, 373.586 310.814, 374.111 310.289 C 374.718 309.682, 374.540 309.333, 373.623 309.333 C 372.814 309.333, 372.320 310.066, 372.500 311 C 372.677 311.917, 372.206 312.667, 371.454 312.667 C 370.703 312.667, 370.393 312.179, 370.766 311.583 C 372.427 308.929, 370.454 305.983, 368.023 307.486 C 367.074 308.072, 364.673 305.379, 364.383 303.403 C 364.129 301.675, 364.551 301.434, 369.348 300.568 C 372.251 300.043, 373.012 300.172, 372.444 301.091 C 371.960 301.874, 372.109 302.051, 372.862 301.585 C 373.506 301.187, 373.726 300.366, 373.352 299.761 C 372.925 299.069, 373.247 298.881, 374.221 299.255 C 375.073 299.582, 376.797 299.130, 378.051 298.252 C 379.599 297.167, 380.065 297.086, 379.502 297.997 C 378.887 298.992, 379.124 299.166, 380.418 298.670 C 381.378 298.301, 382.632 298, 383.204 298 C 383.834 298, 383.754 297.408, 383 296.500 C 381.680 294.909, 378.060 294.497, 376.416 295.750 C 375.874 296.163, 376.530 295.448, 377.872 294.163 L 380.313 291.826 382.682 294.852 C 384.872 297.651, 385.293 297.798, 388.275 296.803 C 390.049 296.211, 391.857 295.409, 392.292 295.021 C 393.263 294.156, 390.730 291.930, 388.383 291.586 C 387.439 291.447, 386.562 290.626, 386.435 289.761 C 386.231 288.368, 386.580 288.344, 389.475 289.554 C 391.274 290.306, 393.126 290.601, 393.590 290.210 C 394.054 289.820, 393.897 290.208, 393.241 291.074 C 390.519 294.664, 394.190 295.240, 401 292.291 C 401.825 291.934, 403.175 291.546, 404 291.430 C 404.825 291.314, 406.400 290.908, 407.500 290.528 C 409.472 289.846, 409.473 289.859, 407.559 291.418 C 406.491 292.288, 406.123 293, 406.741 293 C 407.358 293, 408.782 291.711, 409.904 290.134 C 411.378 288.064, 412.646 287.346, 414.472 287.546 C 415.863 287.699, 417 287.402, 417 286.887 C 417 286.372, 418.125 285.512, 419.500 284.975 C 420.875 284.439, 423.238 283.477, 424.750 282.839 C 426.262 282.200, 427.837 281.750, 428.250 281.839 C 428.663 281.927, 429 281.475, 429 280.833 C 429 280.192, 429.296 279.963, 429.658 280.325 C 430.020 280.687, 430.884 280.511, 431.578 279.936 C 432.520 279.153, 432.774 279.336, 432.580 280.659 C 432.401 281.878, 431.413 282.441, 429.410 282.465 C 427.809 282.484, 426.725 282.950, 427 283.500 C 427.275 284.050, 427.914 284.362, 428.419 284.194 C 428.925 284.025, 428.761 284.583, 428.056 285.433 C 426.685 287.085, 424.537 286.558, 425.604 284.831 C 425.957 284.261, 425.182 284.352, 423.871 285.036 C 420.945 286.560, 419.954 287.513, 422.083 286.755 C 423.044 286.412, 423.667 286.743, 423.667 287.595 C 423.667 288.940, 422.584 289.447, 420.555 289.054 C 419.135 288.778, 415.004 291.197, 415.506 292.010 C 415.747 292.400, 414.719 292.584, 413.222 292.420 C 411.501 292.231, 409.614 292.926, 408.089 294.311 C 406.763 295.515, 406.061 295.825, 406.531 295 C 407.254 293.728, 407.138 293.699, 405.762 294.814 C 404.870 295.537, 404.319 297.061, 404.538 298.200 C 404.758 299.339, 404.614 299.947, 404.219 299.552 C 403.530 298.863, 403.404 298.435, 403.125 295.833 C 403.056 295.192, 402.704 294.963, 402.342 295.325 C 401.980 295.687, 400.968 295.424, 400.092 294.741 C 398.702 293.658, 398.665 293.711, 399.799 295.161 C 400.688 296.298, 400.761 297.030, 400.032 297.480 C 399.447 297.842, 399.226 298.557, 399.543 299.069 C 400.209 300.147, 398.671 300.337, 397.638 299.304 C 395.160 296.827, 388.944 300.023, 391.126 302.652 C 391.741 303.393, 391.852 304.007, 391.372 304.015 C 390.893 304.024, 391.143 304.438, 391.930 304.935 C 392.716 305.433, 393.464 306.553, 393.592 307.425 C 393.720 308.296, 393.384 308.737, 392.846 308.405 C 392.307 308.072, 392.075 307.592, 392.329 307.338 C 393.004 306.663, 388.806 302.464, 386.669 301.676 C 385.624 301.290, 383.918 301.645, 382.696 302.500 C 381.166 303.572, 380.989 304, 382.077 304 C 382.915 304, 384.206 303.438, 384.947 302.750 C 385.738 302.015, 386.031 301.969, 385.657 302.637 C 385.283 303.307, 385.726 303.718, 386.737 303.637 C 387.748 303.556, 388.462 304.218, 388.476 305.250 C 388.489 306.212, 388.053 306.887, 387.507 306.750 C 386.961 306.613, 386.653 305.892, 386.824 305.150 C 387.029 304.256, 386.689 304.078, 385.817 304.623 C 385.093 305.076, 384.050 305.459, 383.500 305.474 C 382.950 305.488, 382.500 305.950, 382.500 306.500 C 382.500 307.050, 382.950 307.517, 383.500 307.537 C 384.050 307.557, 385.400 308.150, 386.500 308.854 C 388.320 310.018, 388.221 310.087, 385.396 309.621 C 383.689 309.339, 381.776 309.624, 381.146 310.254 C 379.963 311.437, 379.833 311.167, 379.624 307.097 C 379.556 305.775, 378.825 304.564, 378 304.406 C 377.175 304.247, 375.447 303.884, 374.161 303.599 C 372.243 303.174, 372.031 303.333, 372.984 304.481 C 373.623 305.251, 374.743 305.652, 375.472 305.372 C 377.188 304.714, 378.396 306.637, 376.862 307.585 C 376.181 308.006, 375.957 307.878, 376.327 307.280 C 376.696 306.683, 375.954 306.250, 374.561 306.250 C 372.961 306.250, 372.331 306.699, 372.674 307.593 C 372.958 308.332, 373.710 308.838, 374.345 308.718 C 374.980 308.598, 375.387 309.063, 375.250 309.750 C 375.020 310.898, 376.280 311.449, 378.324 311.094 C 378.778 311.015, 378.845 311.442, 378.473 312.043 C 378.102 312.645, 377.168 312.895, 376.399 312.600 C 375.629 312.304, 375 312.499, 375 313.031 C 375 313.564, 376.548 314, 378.441 314 C 382.253 314, 382.907 314.606, 383.224 318.433 C 383.356 320.031, 383.917 320.862, 384.669 320.574 C 385.423 320.284, 385.680 320.670, 385.335 321.569 C 385.025 322.377, 385.272 325.021, 385.882 327.446 C 387.614 334.322, 388.236 333.720, 371 341.866 C 363.721 345.306, 360.717 345.481, 358.210 342.612 C 356.906 341.120, 356.856 340.833, 358 341.402 C 358.825 341.813, 358.667 341.469, 357.648 340.640 C 356.630 339.810, 355.730 337.977, 355.648 336.566 C 355.567 335.156, 355.162 334.001, 354.750 334.001 C 354.337 334, 354.089 333.663, 354.197 333.250 C 354.616 331.654, 348.185 319.995, 346.890 320.002 C 346.043 320.006, 346.143 325.970, 346.999 326.499 C 347.502 326.810, 347.660 327.722, 347.352 328.526 C 347.043 329.331, 346.388 329.740, 345.895 329.435 C 344.401 328.512, 344.892 330.215, 346.750 332.404 C 348.116 334.013, 348.146 334.193, 346.887 333.224 C 345.491 332.150, 345.310 332.321, 345.548 334.487 C 345.699 335.864, 345.343 337.288, 344.757 337.650 C 344.152 338.024, 343.981 337.839, 344.362 337.224 C 344.731 336.627, 344.575 335.856, 344.016 335.510 C 343.450 335.160, 343 335.820, 343 337 C 343 338.165, 342.616 338.881, 342.147 338.591 C 341.678 338.301, 340.441 338.758, 339.397 339.606 C 338.354 340.454, 338.064 340.863, 338.753 340.513 C 339.621 340.073, 339.890 340.588, 339.629 342.189 C 339.421 343.460, 339.728 345.097, 340.311 345.826 C 341.076 346.783, 341.001 347.381, 340.040 347.975 C 339.308 348.428, 338.963 349.462, 339.275 350.274 C 339.660 351.278, 338.347 352.597, 335.171 354.395 C 332.240 356.055, 331.431 356.834, 333 356.486 C 334.375 356.182, 337.075 355.758, 339 355.546 C 346.505 354.716, 350.518 353.882, 351.439 352.961 C 353.453 350.947, 357.163 351.840, 356.796 354.250 C 356.606 355.496, 355.854 356.371, 355.111 356.211 C 353.252 355.812, 345 359.063, 345 360.195 C 345 360.703, 344.550 360.840, 344 360.500 C 343.450 360.160, 343 360.331, 343 360.879 C 343 361.427, 343.788 361.871, 344.750 361.866 C 345.712 361.860, 347.400 362.079, 348.500 362.351 C 349.600 362.624, 350.725 362.888, 351 362.939 C 353.480 363.394, 354.303 364.931, 352.944 366.568 C 351.645 368.133, 351.741 368.230, 354.008 367.646 C 355.379 367.293, 354.700 367.870, 352.500 368.928 C 347.746 371.214, 345.118 371.472, 344.445 369.718 C 343.866 368.210, 338.767 368.198, 338.265 369.704 C 338.063 370.312, 339.069 370.566, 340.710 370.321 C 343.305 369.934, 343.260 370.015, 340.075 371.478 C 337.584 372.622, 335.949 372.792, 334.075 372.104 L 331.500 371.158 334.309 371.079 C 335.941 371.033, 336.855 370.574, 336.490 369.984 C 335.822 368.903, 332.027 369.225, 325.500 370.916 C 323.300 371.486, 319.363 371.963, 316.750 371.976 C 313.811 371.991, 312 372.445, 312 373.167 C 312 373.808, 311.745 374.078, 311.433 373.766 C 311.120 373.454, 309.431 373.594, 307.678 374.078 C 305.830 374.589, 303.233 374.583, 301.496 374.065 C 299.021 373.327, 298.891 373.157, 300.750 373.086 C 302.781 373.008, 304.147 371, 302.169 371 C 301.712 371, 300.700 369.762, 299.921 368.250 C 298.219 364.949, 297.091 364.036, 294.691 364.015 C 293.508 364.005, 293.142 364.433, 293.633 365.250 C 294.070 365.977, 293.598 365.873, 292.505 365 C 290.819 363.654, 290.687 363.665, 291.225 365.103 C 291.688 366.342, 291.257 366.643, 289.324 366.431 C 286.041 366.071, 285.451 365.367, 286.933 363.581 C 287.929 362.381, 287.818 362.116, 286.326 362.129 C 283.943 362.149, 281.802 361.632, 280.250 360.663 C 278.395 359.504, 276.832 360.894, 277.527 363.084 C 277.867 364.155, 277.664 365, 277.067 365 C 276.480 365, 275.996 364.663, 275.992 364.250 C 275.980 363.037, 270.981 361.070, 269.427 361.666 C 268.642 361.968, 268 361.689, 268 361.048 C 268 360.407, 268.419 360.141, 268.931 360.457 C 269.443 360.774, 270.158 360.553, 270.520 359.968 C 270.979 359.224, 271.594 359.248, 272.555 360.046 C 273.313 360.675, 274.510 360.957, 275.216 360.673 C 276.001 360.358, 275.797 360.127, 274.691 360.079 C 273.588 360.031, 273.161 359.549, 273.595 358.845 C 274.038 358.130, 273.870 357.962, 273.155 358.405 C 272.508 358.804, 271.993 358.542, 271.985 357.809 C 271.973 356.836, 271.732 356.875, 271.046 357.960 C 270.259 359.205, 269.802 359.131, 267.956 357.460 C 266.765 356.382, 265.500 355.572, 265.145 355.660 C 264.077 355.924, 262.147 354.569, 262.071 353.500 C 262.032 352.950, 261.550 352.444, 261 352.375 C 260.450 352.306, 259.475 352.194, 258.833 352.125 C 258.192 352.056, 257.963 351.704, 258.325 351.342 C 258.687 350.980, 258.481 350.080, 257.869 349.342 C 256.027 347.123, 263.437 347.252, 268.500 349.527 C 278.368 353.961, 281 354.680, 281 352.941 C 281 352.359, 280.550 352.160, 280 352.500 C 279.450 352.840, 278.516 352.819, 277.926 352.454 C 276.139 351.350, 282.176 348.858, 285.466 349.341 C 289.643 349.955, 292 351.015, 292 352.278 C 292 352.864, 292.788 354.242, 293.750 355.341 C 295.417 357.244, 295.417 357.309, 293.750 356.701 C 292.788 356.350, 292 356.429, 292 356.876 C 292 357.984, 295.262 360.646, 296.500 360.548 C 298.952 360.355, 300 358.868, 299 357 C 297.318 353.858, 303.613 351.972, 309.237 353.933 C 310.935 354.525, 312.505 354.828, 312.727 354.606 C 312.948 354.385, 310.850 353.447, 308.065 352.522 C 305.279 351.596, 303 350.480, 303 350.041 C 303 349.602, 301.620 348.671, 299.933 347.972 C 297.704 347.049, 297.225 346.473, 298.183 345.866 C 299.262 345.182, 299.263 345.028, 298.191 345.015 C 297.446 345.007, 297.194 344.495, 297.607 343.827 C 298.006 343.182, 297.332 343.355, 296.110 344.211 C 294.083 345.630, 293.212 345.594, 286.194 343.797 C 281.962 342.713, 278.050 341.478, 277.500 341.051 C 276.950 340.625, 275.223 339.970, 273.662 339.597 C 272.101 339.223, 265.089 336.461, 258.079 333.459 C 251.070 330.456, 244.585 328, 243.668 328 C 242.750 328, 242 327.550, 242 327 C 242 326.450, 241.368 326, 240.595 326 C 239.821 326, 237.459 325.112, 235.345 324.027 C 227.967 320.240, 208.009 311, 207.208 311 C 206.764 311, 205.899 310.499, 205.286 309.886 C 204.673 309.273, 200.645 307.360, 196.336 305.636 C 192.026 303.911, 188.444 301.938, 188.375 301.250 C 188.149 298.992, 188.019 298.920, 186.061 299.968 C 184.994 300.538, 183.888 300.628, 183.603 300.167 C 183.006 299.201, 179.370 299.297, 178.362 300.304 C 177.989 300.677, 177.131 300.524, 176.455 299.962 C 175.019 298.771, 168.112 302.701, 168.042 304.750 C 168.019 305.438, 167.502 306, 166.893 306 C 166.284 306, 166.054 306.698, 166.382 307.552 C 166.723 308.442, 166.555 308.843, 165.989 308.493 C 164.615 307.644, 164.744 310.344, 166.144 311.744 C 167.003 312.603, 166.756 312.749, 165.155 312.330 C 163.982 312.024, 163.312 311.304, 163.666 310.732 C 164.035 310.134, 163.826 309.989, 163.175 310.392 C 162.338 310.909, 162.362 311.607, 163.267 313.056 C 163.942 314.136, 164.646 314.562, 164.832 314.004 C 165.018 313.445, 165.560 313.228, 166.035 313.522 C 166.511 313.816, 167.372 313.173, 167.950 312.094 C 168.707 310.679, 169.725 310.264, 171.602 310.604 C 173.033 310.864, 174.843 310.545, 175.625 309.897 C 176.762 308.953, 176.929 309.022, 176.460 310.244 C 176.055 311.298, 179.823 315.384, 188.639 323.452 C 199.742 333.611, 202.729 335.765, 211.564 339.984 C 220.074 344.049, 225.289 348, 222.142 348 C 221.704 348, 221.545 349.350, 221.787 351 C 222.045 352.760, 222.830 354, 223.685 354 C 225.984 354, 222.280 357.295, 219.647 357.591 C 218.466 357.724, 217.275 357.939, 217 358.069 C 216.725 358.199, 216.050 358.391, 215.500 358.496 C 214.950 358.602, 213.233 359.208, 211.685 359.844 C 210.137 360.480, 207.999 361, 206.935 361 C 205.871 361, 205 361.403, 205 361.895 C 205 362.387, 203.313 363.016, 201.250 363.293 C 199.188 363.570, 195.700 364.258, 193.500 364.823 C 182.525 367.638, 159.809 368.909, 126.500 368.571 C 90.842 368.209, 86.443 367.577, 62.316 359.364 C 54.200 356.600, 35.708 356.738, 38.037 359.544 C 38.842 360.514, 37.929 360.960, 34.041 361.494 C 27.982 362.328, 26.858 363.514, 31.266 364.424 C 61.430 370.651, 74.865 371.400, 158.500 371.516 C 226.418 371.610, 235.955 371.826, 259.500 373.802 C 300.435 377.238, 342.089 376.788, 386.985 372.425 C 407.951 370.388, 425 366.647, 425 364.085 C 425 362.993, 407.948 360, 401.723 360 C 398.615 360, 395.805 359.494, 395.415 358.863 C 394.716 357.731, 414.951 358.324, 422.750 359.664 C 424.708 360.001, 426 359.805, 426 359.173 C 426 357.152, 391.754 354.972, 390.552 356.916 C 390.180 357.518, 390.575 358, 391.441 358 C 392.298 358, 393 358.466, 393 359.035 C 393 359.744, 392.398 359.748, 391.090 359.048 C 389.704 358.306, 388.168 358.450, 385.482 359.572 C 379.978 361.872, 380.199 360.628, 385.818 357.691 C 388.512 356.282, 393.368 353.662, 396.608 351.868 C 399.849 350.075, 404.750 347.519, 407.500 346.189 C 410.250 344.859, 414.525 342.129, 417 340.123 C 419.475 338.117, 422.738 335.842, 424.250 335.069 C 425.762 334.295, 427 333.331, 427 332.926 C 427 332.521, 428.913 331.065, 431.250 329.689 C 433.587 328.314, 437.637 324.888, 440.250 322.077 C 442.862 319.266, 445 317.254, 445 317.606 C 445 317.957, 445.670 317.689, 446.489 317.009 C 447.308 316.329, 447.769 315.435, 447.513 315.020 C 447.257 314.606, 447.937 313.462, 449.024 312.479 C 450.111 311.495, 451 310.205, 451 309.612 C 451 309.019, 448.940 310.889, 446.422 313.767 C 441.399 319.509, 440.017 320.154, 440.032 316.750 C 440.058 310.984, 439.474 306, 438.772 306 C 438.348 306, 438 305.100, 438 304 C 438 302.900, 437.587 302, 437.083 302 C 435.594 302, 435.238 304.301, 436.265 307.290 C 437.113 309.757, 436.828 310.465, 433.813 313.393 C 431.937 315.215, 430.574 317.222, 430.785 317.854 C 431.021 318.564, 430.528 318.756, 429.491 318.358 C 427.777 317.700, 427.760 313.655, 429.455 309.750 C 430.804 306.641, 427.671 307.786, 424.725 311.478 C 422.848 313.830, 422.488 314.750, 423.611 314.319 C 424.525 313.968, 425.083 314.091, 424.852 314.591 C 424.620 315.091, 423.642 317.300, 422.679 319.500 C 421.572 322.027, 419.467 324.403, 416.963 325.951 C 414.450 327.505, 412.994 329.152, 412.985 330.451 C 412.973 331.978, 412.751 332.155, 412.112 331.147 C 411.047 329.467, 407 331.293, 407 333.453 C 407 337.952, 409.445 339.347, 410.433 335.412 C 410.968 333.279, 411.339 333.037, 412.541 334.034 C 413.718 335.011, 414 334.931, 414 333.622 C 414 332.730, 414.450 332, 415 332 C 418.184 332, 408.957 342.844, 403.616 345.378 C 399.870 347.156, 394.447 347.532, 393.548 346.077 C 392.384 344.194, 391.968 336.215, 392.905 333.750 C 393.705 331.646, 393.559 331.118, 392.069 330.728 C 391.049 330.462, 390.031 329.005, 389.727 327.378 C 388.969 323.321, 386.683 317.528, 385.076 315.592 C 383.105 313.217, 383.689 312.967, 397.218 310.393 C 418.215 306.397, 437.878 300.520, 449.250 294.842 L 455 291.971 455 280.062 C 455 261.636, 454.953 261.605, 422 258.038 C 364.290 251.792, 369.539 251.536, 337.123 262.184 C 330.316 264.420, 323.566 266.244, 322.123 266.238 C 320.681 266.231, 319.056 266.492, 318.514 266.817 C 317.972 267.143, 316.138 267.289, 314.438 267.143 C 312.692 266.992, 310.834 267.495, 310.167 268.298 C 309.479 269.128, 307.949 269.522, 306.496 269.244 C 305.125 268.982, 302.921 269.477, 301.597 270.345 C 299.351 271.816, 296.252 271.892, 294.046 270.529 C 293.526 270.207, 292.644 270.796, 292.087 271.837 C 291.469 272.993, 290.183 273.638, 288.787 273.493 C 287.529 273.362, 285.738 273.198, 284.807 273.128 C 283.699 273.044, 283.244 272.332, 283.488 271.064 C 283.945 268.690, 281.876 266.840, 278.548 266.646 C 276.514 266.527, 276.130 266.072, 276.472 264.184 C 276.798 262.386, 276.122 261.414, 273.446 259.835 C 271.551 258.717, 270 257.158, 270 256.370 C 270 255.582, 269.328 254.679, 268.506 254.364 C 267.684 254.048, 267.303 253.318, 267.660 252.741 C 268.048 252.114, 267.826 251.989, 267.111 252.432 C 266.452 252.839, 265.277 252.645, 264.500 252 C 263.723 251.355, 262.548 251.161, 261.889 251.568 C 261.076 252.071, 260.954 251.883, 261.510 250.985 C 262.092 250.043, 261.881 249.832, 260.779 250.255 C 259.927 250.582, 258.318 250.211, 257.204 249.430 C 255.409 248.173, 255.206 248.201, 255.422 249.673 C 255.557 250.586, 256.458 251.450, 257.425 251.592 C 259.516 251.899, 260.325 252.605, 260.580 254.346 C 260.724 255.328, 259.974 255.262, 257.417 254.067 C 255.574 253.205, 254.050 252.024, 254.033 251.441 C 253.947 248.673, 251.169 246.670, 247.600 246.804 C 245.575 246.880, 244.130 246.599, 244.390 246.179 C 244.649 245.759, 243.939 245.346, 242.812 245.261 C 240.883 245.116, 240.868 245.183, 242.553 246.415 C 245.099 248.277, 245.478 251.316, 242.969 249.748 C 241.957 249.117, 241.349 248.245, 241.617 247.811 C 241.885 247.378, 241.446 247.275, 240.642 247.584 C 239.746 247.928, 238.937 247.377, 238.552 246.163 C 238.206 245.073, 237.152 243.577, 236.211 242.840 C 234.638 241.608, 234.621 241.654, 236 243.414 C 237.416 245.220, 237.374 245.260, 235.250 244.129 C 234.012 243.469, 232.993 243.283, 232.985 243.715 C 232.976 244.147, 232.627 243.961, 232.208 243.303 C 231.790 242.644, 230.914 242.435, 230.261 242.839 C 228.769 243.761, 229.788 248, 231.502 248 C 232.199 248, 233.519 249.142, 234.433 250.539 C 236.011 252.947, 236.004 253.028, 234.298 252.112 C 231.534 250.627, 228.598 249.660, 227.581 249.898 C 227.075 250.016, 227.195 249.469, 227.848 248.683 C 229.332 246.895, 228.328 244.049, 226.143 243.852 C 224.442 243.699, 222.143 243.405, 220.628 243.148 C 220.148 243.067, 220.373 242.241, 221.128 241.313 C 222.327 239.838, 222.283 239.707, 220.782 240.269 C 219.837 240.623, 218.779 240.452, 218.431 239.888 C 218.083 239.325, 217.168 239.105, 216.399 239.400 C 215.629 239.696, 215 239.475, 215 238.910 C 215 238.344, 214.528 238.174, 213.951 238.530 C 213.225 238.979, 213.222 239.563, 213.943 240.431 C 214.515 241.120, 214.649 242.023, 214.241 242.437 C 213.834 242.851, 214.175 243.077, 215 242.940 C 217.361 242.546, 221.548 244.543, 220.160 245.401 C 218.866 246.201, 221.158 250.388, 223.019 250.625 C 223.559 250.694, 224.450 250.806, 225 250.875 C 225.550 250.944, 225.951 251.338, 225.892 251.750 C 225.588 253.855, 227.430 256.710, 230.068 258.224 C 231.695 259.158, 232.908 260.458, 232.763 261.113 C 232.618 261.768, 233.977 263.325, 235.781 264.573 C 237.635 265.856, 238.610 267.123, 238.023 267.486 C 236.369 268.508, 232.797 266.971, 233.368 265.483 C 233.650 264.748, 233.238 263.612, 232.452 262.960 C 231.665 262.307, 231.252 261.402, 231.533 260.947 C 231.813 260.493, 231.246 260.100, 230.272 260.074 C 225.988 259.959, 225.053 259.640, 225.901 258.583 C 227.214 256.946, 225.322 253, 223.223 253 C 222.211 253, 220.509 252.292, 219.441 251.426 C 218.374 250.560, 218.139 250.184, 218.920 250.590 C 219.975 251.138, 220.168 250.879, 219.670 249.582 C 219.301 248.622, 219 247.622, 219 247.359 C 219 247.097, 218.480 247.203, 217.845 247.595 C 217.172 248.012, 216.961 247.872, 217.339 247.261 C 217.702 246.673, 216.824 245.922, 215.338 245.549 C 213.619 245.117, 212.399 245.343, 211.860 246.192 C 210.664 248.078, 210.808 246.228, 212.035 243.934 C 212.605 242.870, 212.691 242, 212.226 242 C 211.762 242, 210.509 241.324, 209.441 240.498 C 207.529 239.017, 207.530 239.004, 209.500 239.573 C 211.462 240.140, 211.463 240.128, 209.553 238.916 C 208.092 237.989, 207.510 237.971, 207.218 238.846 C 207.004 239.488, 206.509 239.814, 206.117 239.572 C 205.725 239.330, 204.769 239.525, 203.992 240.005 C 202.343 241.024, 204.902 244.517, 208.024 245.508 C 209.608 246.010, 211.386 249.322, 211.108 251.250 C 211.049 251.663, 211.337 251.926, 211.750 251.836 C 212.162 251.746, 213.715 252.014, 215.200 252.432 C 217.343 253.035, 217.652 253.457, 216.700 254.476 C 215.856 255.379, 214.781 255.487, 213.078 254.839 C 211.745 254.333, 210.072 254.142, 209.360 254.416 C 208.647 254.689, 207.755 254.413, 207.378 253.802 C 206.978 253.156, 207.144 252.971, 207.773 253.360 C 209.054 254.151, 210.432 250.507, 209.452 248.922 C 209.079 248.319, 207.924 248.048, 206.886 248.320 C 205.847 248.591, 205.249 248.405, 205.558 247.907 C 205.866 247.408, 205.364 247, 204.442 247 C 203.270 247, 202.921 246.411, 203.280 245.037 C 204.059 242.058, 201.384 240.280, 198.669 241.971 C 196.692 243.202, 196.622 243.174, 197.872 241.661 C 198.627 240.747, 199.810 240, 200.500 240 C 201.190 240, 202.324 239.315, 203.019 238.477 C 204.866 236.251, 203.116 236.979, 183.197 246.716 C 173.681 251.367, 165.220 254.915, 164.395 254.598 C 163.440 254.232, 163.151 254.436, 163.599 255.160 C 166.617 260.044, 76.051 235.545, 68.372 229.401 C 66.902 228.225, 67.223 228.254, 69.867 229.538 C 71.719 230.437, 74.081 230.951, 75.117 230.680 C 76.355 230.356, 77 230.711, 77 231.716 C 77 232.982, 77.266 233.024, 78.547 231.961 C 79.758 230.956, 79.819 230.506, 78.826 229.893 C 78.129 229.462, 77.919 228.747, 78.361 228.306 C 79.212 227.455, 82.011 230.649, 81.985 232.441 C 81.976 233.024, 81.583 232.889, 81.110 232.143 C 80.510 231.197, 80.043 231.122, 79.566 231.893 C 78.792 233.145, 78.807 233.150, 85.146 233.421 C 88.755 233.576, 89.672 233.310, 89.258 232.230 C 88.951 231.430, 87.908 231.052, 86.805 231.341 C 85.316 231.730, 85.128 231.550, 85.968 230.538 C 86.974 229.326, 86.306 228.642, 83 227.500 C 78.932 226.095, 78.210 223.983, 81.809 224.015 C 83.277 224.029, 83.303 224.170, 82 225.091 C 80.780 225.954, 80.768 226.080, 81.938 225.764 C 84.589 225.047, 84.103 223.285, 80.887 221.953 C 78.219 220.848, 77.997 220.527, 79.526 219.991 C 81.291 219.372, 81.291 219.326, 79.534 218.651 C 77.421 217.841, 76.947 218.155, 76.588 220.604 C 76.443 221.587, 75.739 222.587, 75.023 222.826 C 74.253 223.082, 74.007 222.798, 74.420 222.130 C 74.804 221.508, 74.641 221, 74.059 221 C 73.477 221, 73 221.702, 73 222.559 C 73 223.416, 72.539 223.833, 71.975 223.485 C 70.858 222.794, 74.730 217.470, 80.665 211.535 L 84.283 207.917 86.489 209.990 C 87.703 211.130, 89.315 213.286, 90.072 214.781 C 102.147 238.640, 131.956 244.702, 155.759 228.140 C 157.266 227.090, 162.401 223.739, 167.168 220.692 C 171.935 217.645, 179.318 212.115, 183.574 208.404 C 197.295 196.437, 200.425 194.737, 207.276 195.532 C 212.669 196.158, 213.175 196.046, 213.680 194.117 C 213.981 192.965, 214.575 192.237, 215 192.500 C 215.426 192.763, 216.329 192.308, 217.009 191.489 C 217.689 190.670, 219.574 190, 221.199 190 C 223.165 190, 225.183 188.970, 227.230 186.923 C 229.234 184.920, 230.971 184.021, 232.211 184.345 C 233.385 184.652, 233.965 184.394, 233.724 183.671 C 233.509 183.027, 232.696 182.500, 231.917 182.500 C 231.137 182.500, 230.229 181.825, 229.898 181 C 229.439 179.856, 229.124 180.040, 228.572 181.777 M 224.963 195.889 C 219.407 201.215, 215.898 203.861, 214.749 203.594 C 213.624 203.332, 213.245 203.600, 213.691 204.343 C 214.147 205.105, 213.860 205.076, 212.850 204.259 C 212.006 203.576, 210.982 203.351, 210.575 203.759 C 210.167 204.166, 209.983 203.881, 210.167 203.125 C 210.350 202.369, 209.875 201.523, 209.111 201.245 C 208.267 200.939, 207.993 201.179, 208.413 201.859 C 208.842 202.554, 208.555 202.766, 207.653 202.420 C 205.017 201.409, 204.605 204.192, 207.106 206.115 C 210.377 208.630, 213.925 208.450, 217.500 205.588 C 221.478 202.402, 226 204.473, 226 209.480 C 226 213.885, 222.384 223.204, 219.870 225.275 C 218.686 226.251, 217.936 227.270, 218.205 227.538 C 219.236 228.570, 225.517 222.375, 225.848 220 C 226.302 216.731, 226.650 216.464, 228.476 217.980 C 230.568 219.716, 230.402 218.545, 228.250 216.391 C 226.583 214.722, 226.604 214.665, 228.680 215.207 C 230.781 215.755, 230.853 215.517, 230.680 208.638 C 230.535 202.880, 230.113 201.168, 228.500 199.783 C 227.400 198.839, 227.036 198.052, 227.691 198.033 C 228.346 198.015, 229.160 198.450, 229.500 199 C 230.253 200.218, 232 200.325, 232 199.153 C 232 198.687, 230.988 197.817, 229.750 197.220 C 227.900 196.328, 227.819 196.123, 229.294 196.068 C 230.306 196.029, 230.960 195.371, 230.794 194.556 C 230.632 193.761, 231.349 192.485, 232.388 191.719 C 233.426 190.952, 234.084 189.752, 233.851 189.052 C 233.598 188.293, 230.009 191.053, 224.963 195.889 M 240 199.566 C 240 200.244, 238.459 203.089, 236.576 205.887 C 234.693 208.686, 233.455 211.137, 233.826 211.334 C 236.016 212.497, 238.029 212.856, 237.493 211.989 C 237.157 211.445, 237.332 211, 237.882 211 C 238.432 211, 239.160 211.450, 239.500 212 C 240.390 213.440, 242.245 213.234, 241.750 211.750 C 241.521 211.063, 240.846 210.500, 240.250 210.500 C 239.654 210.500, 238.829 210.162, 238.417 209.750 C 238.004 209.338, 238.417 209, 239.333 209 C 241.144 209, 241.582 207.478, 240.044 206.527 C 238.482 205.562, 240.022 203.082, 241.833 203.645 C 243.350 204.117, 243.346 204.036, 241.793 202.753 C 240.273 201.497, 240.251 201.177, 241.591 199.838 C 242.930 198.498, 242.925 198.333, 241.548 198.333 C 240.696 198.333, 240 198.888, 240 199.566 M 253.594 213 C 249.354 217.009, 247.624 218, 244.862 218 C 241.671 218, 241.213 218.414, 238.661 223.619 C 237.145 226.710, 236.110 229.444, 236.361 229.694 C 236.612 229.945, 237.114 229.217, 237.476 228.075 C 237.838 226.934, 238.854 226, 239.734 226 C 240.614 226, 241.037 225.704, 240.675 225.342 C 239.707 224.374, 241.946 222.042, 243.333 222.574 C 244.814 223.143, 252.156 219.489, 251.284 218.617 C 250.933 218.266, 251.577 217.111, 252.716 216.050 C 253.855 214.989, 255.060 214.393, 255.394 214.727 C 255.727 215.060, 256 214.631, 256 213.774 C 256 212.471, 257.909 211, 259.598 211 C 259.836 211, 259.962 212.238, 259.877 213.750 C 259.791 215.262, 260.075 217.805, 260.507 219.399 C 261.071 221.482, 260.969 222.099, 260.146 221.590 C 259.516 221.201, 259 221.359, 259 221.941 C 259 222.523, 259.788 223.007, 260.750 223.015 C 262.113 223.027, 262.200 223.221, 261.143 223.890 C 260.319 224.413, 260.176 224.991, 260.780 225.364 C 263.027 226.752, 264.049 223.361, 262.501 219.655 C 261.668 217.663, 260.916 214.225, 260.830 212.016 C 260.628 206.870, 259.983 206.957, 253.594 213 M 276.335 227.478 C 274.594 229.140, 272.234 232.075, 271.089 234 C 268.616 238.159, 268.190 241.602, 270.568 238.206 C 271.431 236.974, 272.505 236.194, 272.955 236.472 C 273.405 236.750, 274.329 236.308, 275.009 235.489 C 275.689 234.670, 277.090 234, 278.122 234 C 279.155 234, 280 233.564, 280 233.031 C 280 232.499, 280.749 232.350, 281.664 232.701 C 282.763 233.123, 283.089 232.953, 282.623 232.199 C 282.196 231.508, 282.838 230.828, 284.251 230.473 C 285.633 230.126, 286.644 229.078, 286.733 227.899 C 286.879 225.950, 286.812 225.953, 283.389 228.069 C 279.821 230.274, 277.848 230.093, 279.800 227.741 C 282.212 224.835, 279.331 224.617, 276.335 227.478 M 305.341 240.448 C 302.914 241.514, 299.623 247.582, 300.608 249.175 C 301.033 249.862, 301.505 249.801, 302.004 248.994 C 302.418 248.324, 304.949 246.994, 307.629 246.040 C 310.308 245.086, 313.349 243.940, 314.386 243.493 C 315.785 242.891, 316.152 243.043, 315.807 244.080 C 315.550 244.850, 316.347 246.272, 317.578 247.240 C 320.388 249.450, 320.541 249.439, 320.725 247 C 320.808 245.900, 320.427 245, 319.879 245 C 319.331 245, 319.160 245.450, 319.500 246 C 319.840 246.550, 319.685 247, 319.157 247 C 318.006 247, 315.912 241.421, 316.748 240.585 C 318.003 239.331, 315.582 240.093, 312.618 241.886 C 310.903 242.923, 308.375 244.095, 307 244.489 C 304.677 245.156, 304.632 245.106, 306.359 243.787 C 308.983 241.783, 308.194 239.195, 305.341 240.448 M 192.739 247.763 C 193.168 248.880, 192.960 249.094, 192.015 248.510 C 191.134 247.965, 190.930 248.077, 191.405 248.845 C 191.874 249.606, 191.224 250, 189.500 250 C 188.060 250, 187.100 249.646, 187.368 249.214 C 187.635 248.782, 186.986 248.429, 185.927 248.429 C 183.533 248.429, 183.407 250.569, 185.724 251.866 C 186.840 252.490, 188.105 252.479, 189.310 251.834 C 191.822 250.490, 192.621 251.522, 190.619 253.524 C 188.813 255.329, 188.462 256.450, 190 255.500 C 190.550 255.160, 191 255.284, 191 255.774 C 191 257.519, 189.661 257.964, 188.092 256.741 C 186.718 255.670, 186.670 255.718, 187.745 257.096 C 188.838 258.498, 188.513 258.692, 185.082 258.692 C 181.801 258.692, 181.232 258.392, 181.535 256.819 C 181.733 255.789, 181.469 255.210, 180.948 255.532 C 180.426 255.854, 180 255.416, 180 254.559 C 180 252.608, 180.416 252.613, 183.785 254.605 C 185.645 255.705, 185.954 255.753, 184.766 254.757 C 183.812 253.957, 183.260 253.073, 183.540 252.794 C 183.819 252.514, 183.276 251.658, 182.332 250.893 C 181.197 249.971, 180.870 249.923, 181.367 250.750 C 182.146 252.046, 181.191 252.355, 177.346 252.052 C 176.161 251.958, 174.854 252.428, 174.441 253.095 C 173.963 253.868, 174.110 254.050, 174.845 253.595 C 175.480 253.203, 176 253.252, 176 253.704 C 176 254.156, 177.012 254.970, 178.250 255.513 C 179.488 256.056, 180.500 257.143, 180.500 257.928 C 180.500 259.752, 185.766 261.196, 188.020 259.989 C 188.964 259.484, 190.093 259.392, 190.529 259.785 C 190.964 260.178, 191.026 259.985, 190.666 259.355 C 190.306 258.725, 190.707 257.943, 191.558 257.616 C 192.408 257.290, 192.853 257.429, 192.546 257.926 C 191.580 259.489, 194.389 259.782, 197.123 258.403 C 198.566 257.675, 200.101 257.399, 200.534 257.790 C 200.966 258.180, 201.026 257.985, 200.666 257.355 C 200.306 256.725, 200.707 255.943, 201.558 255.616 C 202.443 255.276, 202.843 255.445, 202.493 256.011 C 202.157 256.555, 202.719 257, 203.741 257 C 204.763 257, 206.167 257.563, 206.859 258.250 C 207.870 259.253, 207.969 259.105, 207.360 257.500 C 206.170 254.366, 204.729 253.261, 202.530 253.799 C 201.413 254.072, 200.834 253.933, 201.241 253.490 C 201.649 253.047, 201.453 252.046, 200.806 251.266 C 199.897 250.171, 199.921 249.667, 200.913 249.054 C 201.753 248.534, 200.866 247.986, 198.349 247.469 C 196.232 247.035, 193.969 246.570, 193.319 246.438 C 192.625 246.296, 192.386 246.842, 192.739 247.763 M 334.377 248.727 C 331.892 251.409, 331.884 251.469, 333.889 252.364 C 336.067 253.336, 350 249.504, 350 247.934 C 350 246.240, 347.810 245.860, 346.187 247.271 C 343.368 249.724, 338.824 250.131, 339.543 247.866 C 340.449 245.009, 337.343 245.526, 334.377 248.727 M 54.649 253.176 C 52.572 260.376, 52.178 263.242, 52.082 271.872 C 52.014 278.004, 51.769 279.053, 50.627 278.105 C 48.752 276.549, 46 277.779, 46 280.173 C 46 283.731, 47.919 286, 50.928 286 C 54.271 286, 54.983 287.353, 55.045 293.832 L 55.090 298.500 56.555 295.500 L 58.019 292.500 57.535 295.750 C 56.976 299.493, 57.094 299.528, 63.255 297.429 C 66.698 296.256, 68.373 296.129, 69.867 296.929 C 70.968 297.518, 72.686 297.993, 73.684 297.985 C 75.773 297.968, 75.206 297.580, 65.889 292.647 C 62.925 291.077, 58.789 288.152, 56.697 286.147 L 52.895 282.500 53.083 273.846 C 53.186 269.087, 54.067 261.437, 55.039 256.846 C 57.076 247.230, 56.885 245.426, 54.649 253.176 M 192.545 249.927 C 192.227 250.441, 192.494 251.187, 193.138 251.585 C 193.919 252.068, 194.039 251.873, 193.500 251 C 192.934 250.085, 193.079 249.931, 193.982 250.489 C 194.955 251.090, 194.715 251.707, 193 253 C 191.489 254.139, 191.109 254.949, 191.864 255.416 C 192.489 255.802, 193 255.811, 193 255.437 C 193 255.062, 193.748 255.373, 194.663 256.128 C 195.899 257.148, 196.428 257.194, 196.727 256.306 C 196.948 255.650, 197.775 255.360, 198.565 255.663 C 200.082 256.246, 200.733 251.529, 199.250 250.697 C 197.256 249.579, 193.058 249.097, 192.545 249.927 M 91 256.637 C 100.875 261.332, 119.158 269.715, 136.500 277.501 C 144.200 280.957, 153.586 285.210, 157.358 286.952 C 164.175 290.099, 167.971 290.588, 162.127 287.566 C 160.286 286.613, 159.277 285.442, 159.592 284.621 C 159.880 283.871, 159.414 282.557, 158.558 281.700 C 157.701 280.844, 157 279.661, 157 279.071 C 157 278.482, 156.325 278, 155.500 278 C 154.675 278, 154 277.540, 154 276.979 C 154 276.417, 152.875 275.445, 151.500 274.818 C 149.688 273.992, 149 272.898, 149 270.839 C 149 268.753, 148.514 268, 147.167 268 C 146.158 268, 144.996 267.663, 144.583 267.250 C 143.296 265.963, 137.553 266.380, 136.428 267.842 C 135.517 269.025, 134.883 268.991, 132.227 267.617 C 130.507 266.728, 128.289 265.993, 127.300 265.985 C 125.772 265.972, 125.727 265.823, 127 265 C 128.219 264.212, 128.090 264.028, 126.309 264.015 C 125.104 264.007, 123.840 263.550, 123.500 263 C 123.160 262.450, 122.346 262.007, 121.691 262.015 C 120.879 262.026, 120.924 262.299, 121.834 262.876 C 122.908 263.557, 122.859 263.840, 121.584 264.329 C 120.582 264.714, 120 264.398, 120 263.469 C 120 262.661, 119.495 262, 118.878 262 C 118.102 262, 118.140 261.536, 119 260.500 C 119.860 259.464, 119.898 259, 119.122 259 C 118.505 259, 117.944 259.450, 117.875 260 C 117.806 260.550, 117.694 261.508, 117.625 262.128 C 117.478 263.450, 111 264.189, 111 262.884 C 111 262.398, 110.325 262, 109.500 262 C 108.675 262, 108 261.523, 108 260.941 C 108 260.359, 107.550 260.160, 107 260.500 C 106.450 260.840, 106 260.687, 106 260.159 C 106 259.632, 102.661 258.458, 98.581 257.550 C 94.500 256.642, 90.620 255.247, 89.958 254.450 C 89.297 253.652, 87.573 253.016, 86.128 253.036 C 84.164 253.063, 85.396 253.973, 91 256.637 M 118 253.311 C 118 253.600, 120.944 254.817, 124.543 256.014 C 130.029 257.840, 130.892 258.425, 129.885 259.638 C 128.433 261.388, 129.552 262.697, 133 263.283 C 134.375 263.517, 134.932 263.515, 134.238 263.279 C 133.544 263.042, 133.229 262.438, 133.540 261.936 C 133.850 261.434, 133.451 261.273, 132.653 261.580 C 131.855 261.886, 130.924 261.687, 130.585 261.137 C 129.486 259.359, 131.948 258.828, 135.639 260.046 C 138.274 260.916, 138.872 261.467, 137.870 262.102 C 136.803 262.778, 136.900 262.973, 138.309 262.985 C 139.304 262.993, 139.859 263.419, 139.543 263.931 C 139.226 264.443, 139.496 265.188, 140.141 265.587 C 140.960 266.093, 141.138 265.636, 140.730 264.077 C 140.260 262.278, 140.473 261.972, 141.823 262.507 C 145.455 263.946, 155.431 266.902, 155.711 266.623 C 155.874 266.459, 148.018 263.480, 138.254 260.002 C 128.489 256.523, 119.938 253.477, 119.250 253.232 C 118.563 252.987, 118 253.022, 118 253.311 M 272.028 254.962 C 270.766 255.759, 270.801 255.987, 272.272 256.551 C 273.216 256.913, 273.694 257.725, 273.334 258.355 C 272.974 258.985, 273.049 259.165, 273.500 258.756 C 274.407 257.935, 277.652 261.983, 277.201 263.373 C 277.046 263.853, 277.597 263.985, 278.427 263.666 C 279.257 263.348, 280.226 263.557, 280.581 264.131 C 280.936 264.705, 282.075 264.952, 283.113 264.681 C 284.151 264.409, 285 264.595, 285 265.094 C 285 265.592, 284.255 266, 283.345 266 C 281.857 266, 281.872 266.201, 283.500 268 C 284.495 269.100, 284.903 270.025, 284.405 270.056 C 283.907 270.087, 285.075 270.666, 287 271.341 C 290.178 272.457, 290.638 272.376, 292 270.466 C 293.150 268.853, 294.083 268.530, 296 269.082 C 301.073 270.541, 304.299 269.270, 302.137 266.665 C 301.279 265.631, 301.230 264.976, 301.976 264.515 C 302.567 264.150, 302.926 264.400, 302.775 265.070 C 302.280 267.265, 309.050 268.394, 310.897 266.425 C 312.369 264.855, 312.365 264.763, 310.848 265.289 C 309.939 265.604, 308.914 265.580, 308.569 265.235 C 305.929 262.596, 290.717 263.408, 292.256 266.106 C 292.390 266.341, 292.072 266.188, 291.550 265.767 C 291.028 265.345, 289.806 265, 288.835 265 C 287.865 265, 286.574 264.073, 285.968 262.939 C 284.892 260.929, 284.939 260.917, 287.883 262.439 C 289.543 263.298, 291.523 264, 292.284 264 C 293.903 264, 294.181 261.397, 292.583 261.200 C 287.402 260.561, 284.504 259.833, 283.356 258.880 C 282.610 258.261, 282 258.051, 282 258.413 C 282 258.774, 281.100 258.589, 280 258 C 278.485 257.189, 277.985 257.241, 277.937 258.215 C 277.902 258.922, 277.469 258.495, 276.975 257.267 C 276.348 255.707, 275.563 255.230, 274.374 255.687 C 273.222 256.129, 272.906 255.962, 273.395 255.170 C 274.261 253.769, 273.982 253.726, 272.028 254.962 M 387.998 257.358 C 387.999 257.831, 386.837 257.925, 385.415 257.568 C 383.993 257.211, 381.961 257.195, 380.899 257.532 C 379.009 258.132, 379.013 258.209, 381.052 261.073 C 383.002 263.811, 383.019 264.005, 381.318 264.074 C 377.847 264.216, 374.650 265.046, 373.319 266.150 C 372.572 266.770, 370.275 267.032, 368.120 266.743 C 364.971 266.321, 364.282 266.527, 364.380 267.863 C 364.525 269.836, 358.325 270.405, 356.087 268.624 C 354.982 267.744, 354.790 267.826, 355.207 269 C 355.500 269.825, 355.010 271.392, 354.120 272.483 C 352.585 274.361, 352.597 274.390, 354.350 273.028 C 358.162 270.064, 365.946 272.482, 362.781 275.648 C 361.435 276.994, 360.445 277.103, 357.154 276.267 C 354.014 275.470, 353.264 275.525, 353.648 276.525 C 354.258 278.116, 352.270 279.430, 349 279.598 C 347.625 279.669, 345.112 280.308, 343.417 281.020 C 340.798 282.118, 339.849 282.071, 337.115 280.707 C 334.047 279.177, 333.925 279.189, 334.493 280.977 C 334.876 282.185, 334.450 283.223, 333.294 283.895 C 332.307 284.469, 331.973 284.953, 332.550 284.970 C 333.128 284.986, 334.086 284.514, 334.680 283.920 C 335.431 283.169, 336.866 283.145, 339.391 283.842 C 341.388 284.394, 342.780 284.452, 342.483 283.973 C 341.722 282.741, 345.680 280.818, 348.305 281.144 C 349.512 281.294, 351.625 280.686, 353 279.793 C 354.375 278.900, 356.717 278.314, 358.205 278.492 C 359.692 278.669, 361.435 278.181, 362.077 277.407 C 362.719 276.633, 364.920 276, 366.967 276 C 369.420 276, 371.308 275.318, 372.500 274 C 373.495 272.900, 374.915 272, 375.655 272 C 376.395 272, 377 271.523, 377 270.941 C 377 270.359, 376.601 270.129, 376.113 270.430 C 375.054 271.085, 372.451 268.216, 373.317 267.349 C 373.649 267.018, 375.295 266.587, 376.975 266.391 C 378.656 266.196, 381.356 265.350, 382.975 264.513 C 384.594 263.676, 388.750 262.802, 392.209 262.571 C 395.669 262.341, 398.725 262.065, 399 261.958 C 399.275 261.851, 399.837 261.816, 400.250 261.882 C 401.754 262.119, 400.951 260.195, 399.278 259.553 C 397.881 259.017, 397.816 258.732, 398.931 258.043 C 399.804 257.503, 398.060 257.067, 394.151 256.847 C 390.766 256.656, 387.997 256.886, 387.998 257.358 M 70.250 259.031 C 67.545 260.118, 67.261 261.006, 69.833 260.333 C 71.002 260.028, 71.727 260.424, 71.833 261.427 C 71.925 262.292, 72.075 263.655, 72.167 264.456 C 72.258 265.257, 72.708 265.680, 73.167 265.397 C 73.625 265.114, 74 265.359, 74 265.941 C 74 266.523, 74.787 267.007, 75.750 267.015 C 77.246 267.028, 77.282 267.172, 76 268 C 74.718 268.828, 74.754 268.972, 76.250 268.985 C 77.520 268.996, 78 269.814, 78 271.969 C 78 274.327, 78.342 274.806, 79.664 274.299 C 80.880 273.832, 81.105 274.021, 80.500 275 C 79.887 275.992, 80.126 276.166, 81.418 275.670 C 82.378 275.301, 83.577 275, 84.082 275 C 84.587 275, 85 274.502, 85 273.893 C 85 273.284, 84.369 273.028, 83.597 273.324 C 81.747 274.034, 79.376 272.083, 78.494 269.125 C 77.946 267.287, 78.093 266.927, 79.143 267.535 C 79.942 267.998, 80.157 267.946, 79.667 267.410 C 79.208 266.910, 78.421 266.444, 77.917 266.375 C 77.413 266.306, 76.564 266.194, 76.031 266.125 C 75.499 266.056, 75.316 265.212, 75.626 264.250 C 76.055 262.917, 75.958 262.823, 75.219 263.857 C 74.040 265.507, 73.079 264.221, 72.778 260.589 C 72.660 259.165, 72.549 258.029, 72.532 258.063 C 72.514 258.098, 71.487 258.534, 70.250 259.031 M 90.431 261.425 C 90.393 263.236, 90.843 264.710, 91.431 264.701 C 94.897 264.648, 95.801 265.257, 96.353 268.017 C 96.751 270.007, 97.814 271.359, 99.478 271.992 C 102.190 273.023, 102.714 274.886, 100.824 276.776 C 99.954 277.646, 99.297 277.661, 98.301 276.835 C 97.236 275.951, 97.095 276.084, 97.629 277.475 C 98.206 278.979, 98.011 279.076, 96.283 278.152 C 94.086 276.976, 93 277.516, 93 279.783 C 93 280.783, 93.761 281.088, 95.451 280.765 C 96.798 280.507, 97.870 280.567, 97.832 280.898 C 97.632 282.641, 98.103 284, 98.906 284 C 99.405 284, 99.574 282.988, 99.281 281.750 C 98.756 279.527, 98.769 279.524, 100.377 281.500 C 101.909 283.383, 101.965 283.388, 101.333 281.586 C 100.871 280.272, 101.023 279.896, 101.819 280.388 C 102.575 280.856, 102.771 280.566, 102.382 279.552 C 102.016 278.600, 102.333 278, 103.202 278 C 105.550 278, 108.079 280.397, 108.259 282.794 C 108.354 284.051, 108.944 284.852, 109.593 284.603 C 110.233 284.357, 111.242 284.642, 111.836 285.236 C 112.608 286.008, 113.309 285.989, 114.300 285.166 C 115.061 284.534, 115.980 284.313, 116.342 284.675 C 116.704 285.037, 117 284.778, 117 284.099 C 117 283.291, 116.257 283.101, 114.849 283.548 C 113.047 284.120, 112.813 283.928, 113.408 282.365 C 113.978 280.869, 113.869 280.747, 112.859 281.750 C 110.954 283.641, 109.445 283.253, 109.262 280.824 C 109.055 278.074, 111.562 276.194, 114.650 276.784 C 118.269 277.476, 118.298 278.635, 114.690 278.385 C 111.879 278.191, 111.710 278.315, 113.255 279.445 C 114.218 280.149, 116.154 280.598, 117.557 280.444 C 119.624 280.217, 119.892 280.426, 118.966 281.541 C 118.058 282.635, 118.343 283.048, 120.355 283.553 C 123.819 284.422, 125.481 283.296, 123.799 281.219 C 122.730 279.900, 122.734 279.757, 123.817 280.408 C 124.746 280.967, 125.040 280.656, 124.817 279.350 C 124.620 278.201, 125.020 277.610, 125.873 277.791 C 126.816 277.991, 127.032 277.521, 126.563 276.291 C 126.050 274.943, 126.166 274.783, 127.034 275.643 C 127.903 276.505, 127.781 277.404, 126.539 279.300 C 125.451 280.961, 125.249 282.036, 125.946 282.466 C 126.526 282.825, 127 282.606, 127 281.980 C 127 281.221, 128.085 281.070, 130.250 281.526 C 134.157 282.349, 135.056 283.090, 135.248 285.643 C 135.369 287.243, 136.150 287.582, 139.697 287.572 C 142.064 287.565, 144 287.161, 144 286.673 C 144 286.185, 143.348 286.036, 142.551 286.342 C 141.582 286.714, 141.286 286.418, 141.658 285.449 C 142.347 283.655, 142.977 283.668, 145.441 285.532 C 146.509 286.339, 148.003 287, 148.763 287 C 150.310 287, 152.588 288.987, 152.746 290.475 C 152.803 291.011, 153.345 291.540, 153.950 291.650 C 154.555 291.760, 154.614 291.630, 154.081 291.360 C 153.548 291.091, 153.328 290.309, 153.591 289.622 C 154.240 287.931, 150.955 285.109, 147.947 284.773 C 146.601 284.623, 145.275 284.222, 145 283.881 C 144.022 282.670, 133.810 277.883, 134.464 278.942 C 134.831 279.535, 133.024 278.599, 130.449 276.861 C 127.874 275.123, 124.471 273.656, 122.886 273.601 C 121.301 273.545, 119.990 273.050, 119.972 272.500 C 119.954 271.950, 119.482 272.284, 118.924 273.243 C 117.983 274.858, 117.729 274.868, 115.454 273.378 C 114.104 272.494, 113 270.966, 113 269.983 C 113 268.877, 111.799 267.777, 109.851 267.098 C 106.038 265.769, 105.728 265.750, 106.435 266.895 C 107.099 267.970, 104.202 269.243, 102.910 268.444 C 102.409 268.135, 101.993 268.471, 101.985 269.191 C 101.974 270.142, 101.704 270.090, 101 269 C 100.467 268.175, 100.008 267.950, 99.980 268.500 C 99.952 269.050, 99.308 268.378, 98.549 267.007 C 97.516 265.140, 97.462 264.323, 98.335 263.757 C 99.725 262.854, 97.145 260.792, 95.724 261.671 C 95.244 261.967, 93.873 261.292, 92.676 260.171 L 90.500 258.132 90.431 261.425 M 82.063 262.917 C 82.029 264.796, 82.273 266.060, 82.606 265.727 C 83.946 264.388, 87.252 268.901, 86.772 271.413 C 86.506 272.802, 86.665 273.707, 87.124 273.423 C 88.932 272.306, 92.198 275.131, 91.646 277.336 C 91.120 279.434, 91.163 279.428, 93.052 277.139 C 94.123 275.841, 95 275.353, 95 276.056 C 95 276.758, 95.305 277.029, 95.677 276.656 C 96.050 276.284, 95.390 275.080, 94.211 273.982 C 91.820 271.754, 92.240 268.831, 94.833 269.657 C 96.147 270.076, 96.209 269.981, 95.122 269.206 C 94.364 268.666, 94.060 267.611, 94.446 266.862 C 94.832 266.113, 94.440 266.374, 93.574 267.441 C 92.708 268.509, 92 269.746, 92 270.191 C 92 270.636, 91.373 271, 90.607 271 C 88.836 271, 87.773 268.291, 88.565 265.795 C 88.971 264.517, 88.727 263.933, 87.838 264.055 C 84.994 264.442, 83.903 263.920, 83.031 261.750 C 82.223 259.740, 82.120 259.865, 82.063 262.917 M 433.756 263.709 C 434.447 263.963, 434.769 264.565, 434.471 265.047 C 434.166 265.540, 432.798 265.493, 431.341 264.940 C 429.323 264.172, 428.499 264.304, 427.597 265.537 C 426.688 266.780, 425.877 266.904, 423.805 266.116 C 421.817 265.360, 421.046 265.438, 420.664 266.433 C 420.368 267.204, 419.188 267.567, 417.827 267.307 C 414.872 266.742, 409.165 269.466, 411.459 270.346 C 412.307 270.671, 413 271.884, 413 273.040 C 413 275.335, 408.958 275.625, 406.058 273.538 C 404.943 272.735, 404.807 272.817, 405.461 273.902 C 406.528 275.673, 403.619 277.975, 401.134 277.325 C 400.158 277.070, 398.867 277.455, 398.265 278.180 C 396.646 280.131, 402.060 279.772, 404.966 277.737 C 406.578 276.607, 407.912 276.396, 409.536 277.014 C 411.263 277.670, 411.979 277.497, 412.433 276.315 C 412.882 275.145, 413.908 274.886, 416.459 275.300 C 418.341 275.605, 420.029 275.413, 420.209 274.873 C 421.344 271.469, 428.419 274.030, 427.737 277.597 C 427.341 279.667, 427.494 279.835, 428.791 278.759 C 429.625 278.066, 430.463 277.613, 430.654 277.750 C 430.844 277.887, 431.563 277.998, 432.250 277.996 C 432.938 277.994, 432.015 277.087, 430.201 275.981 C 426.453 273.696, 426.773 272, 430.952 272 C 433.991 272, 435.329 273.887, 434.321 276.750 C 433.819 278.179, 433.953 278.270, 435.053 277.250 C 436.899 275.537, 438.522 275.666, 437.074 277.411 C 436.177 278.491, 436.185 278.996, 437.106 279.565 C 437.822 280.008, 438.048 279.887, 437.666 279.268 C 436.884 278.003, 439.541 275.598, 440.835 276.398 C 441.934 277.077, 447 272.250, 447 270.524 C 447 269.862, 448.125 268.808, 449.500 268.182 C 455.283 265.547, 452.026 263.720, 441.072 263.455 C 436.358 263.340, 433.065 263.455, 433.756 263.709 M 428 267.965 C 428 268.495, 428.900 269.411, 430 270 C 431.100 270.589, 432 270.751, 432 270.361 C 432 269.971, 433.087 270.672, 434.415 271.920 C 436.149 273.549, 437.453 273.991, 439.040 273.487 C 440.465 273.035, 441.022 273.155, 440.609 273.824 C 440.256 274.395, 440.401 275.130, 440.931 275.458 C 441.952 276.088, 441.591 272.764, 440.435 270.895 C 440.052 270.274, 438.512 270.048, 436.888 270.372 C 435.309 270.688, 434.067 270.621, 434.127 270.223 C 434.488 267.841, 433.672 267, 431 267 C 429.350 267, 428 267.434, 428 267.965 M 111.238 302.990 C 110.198 304.656, 110.231 305, 111.433 305 C 112.230 305, 113.203 305.520, 113.595 306.155 C 114.038 306.870, 113.870 307.038, 113.155 306.595 C 112.520 306.203, 112 306.310, 112 306.834 C 112 307.358, 112.679 308.047, 113.509 308.365 C 115.132 308.988, 115.127 311.039, 113.500 312.235 C 112.835 312.723, 112.837 312.975, 113.506 312.985 C 114.060 312.993, 117.059 310.534, 120.171 307.519 C 123.790 304.013, 125.155 302.141, 123.959 302.324 C 121.625 302.680, 118.008 305.870, 118.290 307.324 C 118.405 307.921, 117.713 308.430, 116.750 308.455 C 115.787 308.480, 115.112 308.050, 115.250 307.500 C 115.388 306.950, 115.950 306.650, 116.500 306.833 C 117.050 307.017, 117.162 306.828, 116.748 306.414 C 116.334 306.001, 116.784 304.777, 117.748 303.695 C 119.455 301.778, 119.418 301.740, 116.274 302.187 C 114.500 302.440, 112.924 302.272, 112.771 301.813 C 112.618 301.355, 111.929 301.885, 111.238 302.990 M 157 313.213 C 157 315.659, 168.758 333.315, 174.377 339.306 C 176.686 341.768, 197.991 352.966, 200.413 352.991 C 200.915 352.996, 196.640 349.781, 190.913 345.847 C 185.186 341.912, 180.342 338.567, 180.150 338.413 C 179.957 338.259, 180.102 337.643, 180.472 337.045 C 180.900 336.352, 181.837 336.782, 183.052 338.229 C 184.257 339.664, 185.243 340.119, 185.730 339.467 C 186.618 338.274, 187.995 338.210, 189.681 339.282 C 191.539 340.463, 191.858 338.665, 190.086 337 C 188.318 335.340, 180.871 334.860, 179.854 336.341 C 178.651 338.093, 161.389 317.798, 162.522 315.964 C 162.867 315.407, 162.553 315.074, 161.824 315.225 C 161.096 315.376, 160.596 314.986, 160.714 314.357 C 160.832 313.729, 160.045 312.983, 158.964 312.701 C 157.884 312.418, 157 312.649, 157 313.213 M 104.574 316.363 L 101.647 319.445 104.074 320.013 C 106.947 320.687, 107.559 323.315, 106.086 328.650 C 105.305 331.478, 105.352 332.605, 106.274 333.190 C 107.224 333.794, 107.209 333.973, 106.211 333.985 C 104.834 334.001, 105.465 335.024, 109.188 338.815 C 110.117 339.760, 111.516 341.765, 112.296 343.270 C 113.695 345.965, 122.883 356.191, 125.184 357.613 C 126.201 358.242, 122.887 353.445, 114.914 342.750 L 112.864 340 115.873 340 C 117.528 340, 119.123 339.611, 119.417 339.135 C 119.937 338.293, 122.129 338.370, 126.777 339.394 C 128.370 339.745, 128.834 339.536, 128.324 338.698 C 126.766 336.141, 122.386 333.494, 119.512 333.372 C 117.855 333.302, 115.586 333.189, 114.469 333.122 C 112.026 332.975, 110.005 328.535, 109.293 321.750 C 108.813 317.177, 109.227 316.467, 112.147 316.847 C 112.504 316.894, 112.554 316.009, 112.259 314.881 C 111.872 313.401, 111.504 313.184, 110.937 314.101 C 110.379 315.005, 109.770 315.070, 108.826 314.327 C 107.836 313.547, 106.758 314.063, 104.574 316.363 M 190.547 315.923 C 190.211 316.468, 190.828 316.726, 191.952 316.509 C 193.055 316.297, 194.226 316.556, 194.553 317.086 C 194.881 317.616, 194.553 317.926, 193.824 317.775 C 192.337 317.466, 192.588 321.282, 194.092 321.833 C 194.591 322.017, 195 322.740, 195 323.441 C 195 324.142, 197.758 326.418, 201.129 328.499 C 204.500 330.580, 208.213 333.388, 209.379 334.739 C 212.075 337.862, 221.082 342.678, 219.687 340.250 C 219.450 339.837, 220.167 338.600, 221.281 337.500 C 222.995 335.808, 223.212 335.767, 222.689 337.238 C 222.306 338.318, 222.532 338.886, 223.286 338.738 C 223.954 338.607, 224.387 339.063, 224.250 339.750 C 224.112 340.438, 224.675 341, 225.500 341 C 226.325 341, 227 340.523, 227 339.941 C 227 339.359, 227.416 339.139, 227.924 339.453 C 228.433 339.767, 229.060 339.231, 229.318 338.262 C 229.719 336.760, 229.894 336.831, 230.511 338.750 C 231.069 340.487, 232.061 341.039, 234.867 341.171 C 236.865 341.265, 239.311 341.389, 240.303 341.447 C 241.294 341.505, 242.525 342.216, 243.037 343.026 C 243.828 344.277, 243.972 344.246, 243.985 342.817 C 244 341.174, 240.769 339.450, 239.259 340.296 C 238.842 340.530, 237.150 340.088, 235.500 339.313 C 233.463 338.356, 233.211 338.046, 234.713 338.348 C 235.989 338.605, 237.472 338.120, 238.213 337.205 C 239.270 335.900, 239.263 335.759, 238.170 336.416 C 237.316 336.930, 236.330 336.488, 235.415 335.182 C 234.631 334.062, 231.461 331.876, 228.370 330.323 C 225.279 328.770, 222.277 326.470, 221.697 325.211 C 221.088 323.887, 220.065 323.145, 219.270 323.450 C 218.514 323.740, 218.152 323.563, 218.464 323.058 C 219.405 321.536, 217.022 320.737, 215.445 322.046 C 214.277 323.015, 213.011 322.886, 209.239 321.415 C 206.633 320.399, 204.275 319.525, 204 319.473 C 203.725 319.421, 201.700 318.551, 199.500 317.540 C 194.493 315.238, 191.325 314.666, 190.547 315.923 M 134.022 321.281 C 134.034 322.502, 134.934 325.462, 136.022 327.859 C 137.110 330.257, 138 332.887, 138 333.705 C 138 335.806, 141.763 340.990, 145.745 344.375 C 149.066 347.198, 163.633 357, 164.507 357 C 164.753 357, 161.100 353.301, 156.390 348.779 C 151.680 344.257, 148.316 340.395, 148.913 340.196 C 149.511 339.996, 150 339.238, 150 338.510 C 150 337.738, 150.735 337.379, 151.764 337.649 C 152.735 337.902, 154.630 337.702, 155.977 337.204 L 158.426 336.298 155.988 334.993 C 154.647 334.276, 151.074 333.421, 148.048 333.094 L 142.547 332.500 139.524 326.332 C 136.268 319.690, 133.985 317.595, 134.022 321.281 M 40.743 325.857 C 39.198 328.473, 39.238 328.821, 41.559 332.907 C 42.902 335.270, 44 337.587, 44 338.056 C 44 339.206, 53.158 348.175, 53.739 347.594 C 53.992 347.341, 53.708 345.641, 53.107 343.817 C 52.506 341.993, 51.948 339.150, 51.867 337.500 C 51.595 331.999, 49.763 326.877, 48.273 327.449 C 47.510 327.741, 45.870 326.884, 44.628 325.543 L 42.369 323.106 40.743 325.857 M 194 339.594 C 194 340.367, 194.450 341, 195 341 C 195.550 341, 196 341.684, 196 342.519 C 196 343.676, 195.344 343.875, 193.250 343.353 C 190.866 342.760, 190.667 342.872, 191.756 344.194 C 193.046 345.761, 197.539 345.554, 198.574 343.881 C 198.873 343.396, 199.568 343, 200.118 343 C 200.668 343, 200.819 343.483, 200.454 344.074 C 200.088 344.667, 200.705 344.577, 201.831 343.874 C 203.835 342.622, 203.824 342.571, 201.185 340.975 C 197.134 338.525, 194 337.922, 194 339.594 M 381 339.275 C 367.256 345.539, 363.858 347, 363.031 347 C 362.503 347, 361.605 347.870, 361.035 348.934 C 359.757 351.323, 359.711 352.296, 360.913 351.554 C 361.435 351.231, 361.662 353.080, 361.443 355.867 C 361.135 359.794, 361.452 361.099, 363.072 362.565 C 365.082 364.384, 365.081 364.386, 362.792 365.657 C 361.531 366.357, 359.600 366.981, 358.500 367.044 C 357.373 367.108, 357.056 367.382, 357.775 367.671 C 358.476 367.952, 361.176 367.483, 363.775 366.628 C 366.374 365.772, 369.625 364.850, 371 364.579 C 372.375 364.309, 374.391 363.435, 375.481 362.638 C 377.363 361.261, 377.325 361.215, 374.716 361.714 C 373.206 362.003, 371.726 362.635, 371.426 363.119 C 371.127 363.604, 369.671 363.964, 368.191 363.921 C 366.711 363.878, 366.175 363.622, 367 363.354 C 379.513 359.282, 384.179 354.148, 385.409 343.103 C 386.023 337.587, 385.569 337.192, 381 339.275 M 235 366.171 C 250.122 369.061, 253.384 369.430, 252.600 368.161 C 252.235 367.571, 251.202 367.369, 250.304 367.714 C 249.381 368.068, 248.929 367.924, 249.263 367.384 C 249.597 366.843, 247.994 366.348, 245.564 366.242 C 243.206 366.139, 240.059 365.593, 238.573 365.028 C 237.086 364.462, 233.312 364.037, 230.185 364.082 C 224.738 364.160, 224.939 364.248, 235 366.171" stroke="none" fill="#000" fill-rule="evenodd"/>
	<path fill-opacity="0.194" d="M 214.607 169.826 C 213.907 170.959, 215.040 175, 216.058 175 C 216.511 175, 217.187 174.507, 217.559 173.904 C 217.989 173.209, 219.837 173.048, 222.618 173.465 C 227.891 174.256, 228.365 172.876, 223.599 170.614 C 219.943 168.879, 215.437 168.484, 214.607 169.826 M 224.985 186.079 C 223.274 187.416, 221.098 187.978, 218 187.883 C 215.525 187.807, 211.925 187.834, 210 187.943 L 206.500 188.141 211 190.137 C 215.157 191.981, 215.702 192.014, 218.154 190.566 C 219.614 189.705, 221.477 189, 222.294 189 C 224.036 189, 228.737 185.411, 227.985 184.654 C 227.702 184.370, 226.352 185.011, 224.985 186.079 M 225.695 195.750 C 221.785 199.463, 217.972 203.063, 217.221 203.750 C 216.471 204.438, 216.249 205, 216.729 205 C 217.208 205, 218.128 204.472, 218.773 203.827 C 219.670 202.930, 220.599 202.934, 222.723 203.843 C 225.298 204.946, 225.358 204.922, 223.554 203.513 C 220.813 201.372, 223.036 198.917, 226.025 200.784 C 227.111 201.462, 228 201.601, 228 201.092 C 228 200.583, 227.465 199.988, 226.812 199.771 C 225.951 199.484, 226.044 198.775, 227.152 197.194 C 227.992 195.994, 228.932 195.265, 229.240 195.573 C 229.548 195.881, 229.732 195.321, 229.650 194.327 C 229.566 193.321, 230.496 192.080, 231.750 191.524 C 233.798 190.615, 234.856 189, 233.403 189 C 233.074 189, 229.606 192.037, 225.695 195.750 M 94 200.470 C 94 200.729, 95.072 203.317, 96.383 206.220 C 97.693 209.124, 99.096 212.625, 99.501 214 C 100.809 218.446, 110.620 226.748, 116.633 228.496 C 123.912 230.612, 131.122 231.136, 132.923 229.680 C 133.956 228.846, 134.183 228.835, 133.698 229.645 C 133.190 230.492, 134.229 230.479, 137.689 229.597 C 140.261 228.941, 142.560 227.819, 142.798 227.105 C 143.123 226.132, 142.762 226.051, 141.366 226.783 C 140.340 227.320, 137.700 227.619, 135.500 227.447 C 133.300 227.274, 129.363 227.023, 126.750 226.888 C 124.138 226.753, 122 226.218, 122 225.699 C 122 225.180, 121.315 225.324, 120.477 226.019 C 119.221 227.061, 119.053 227.024, 119.520 225.808 C 119.864 224.913, 119.497 224.333, 118.587 224.333 C 117.763 224.333, 117.340 224.742, 117.649 225.240 C 117.957 225.739, 117.291 225.574, 116.169 224.874 C 115.047 224.173, 114.352 223.240, 114.624 222.800 C 114.896 222.360, 114.304 221.986, 113.309 221.968 C 111.140 221.930, 107.776 219.557, 108.651 218.682 C 108.992 218.342, 108.336 218.243, 107.193 218.463 C 105.849 218.722, 105.282 218.429, 105.587 217.633 C 105.847 216.957, 104.921 215.335, 103.529 214.028 C 102.138 212.721, 101 211.055, 101 210.326 C 101 209.597, 100.523 209, 99.941 209 C 99.359 209, 99.160 208.550, 99.500 208 C 99.840 207.450, 99.693 207, 99.173 207 C 98.653 207, 97.480 205.425, 96.567 203.500 C 95.094 200.395, 94 199.104, 94 200.470 M 164.980 220.524 C 164.284 221.362, 163.501 221.834, 163.238 221.572 C 162.976 221.310, 162.082 221.775, 161.252 222.605 C 160.422 223.436, 159.131 223.880, 158.383 223.593 C 157.636 223.307, 157.131 223.577, 157.262 224.194 C 157.393 224.811, 156.150 226.032, 154.500 226.908 C 152.850 227.784, 151.261 228.817, 150.969 229.205 C 147.880 233.304, 123.025 238.282, 122.985 234.809 C 122.972 233.766, 122.795 233.775, 122.110 234.857 C 121.510 235.803, 121.043 235.878, 120.566 235.107 C 120.190 234.498, 118.574 234, 116.975 234 C 113.701 234, 107 231.117, 107 229.708 C 107 229.201, 106.381 229.024, 105.624 229.314 C 104.868 229.604, 102.618 228.303, 100.624 226.423 C 98.631 224.543, 97 223.416, 97 223.918 C 97 224.963, 103.049 229.704, 107.500 232.147 C 117.579 237.679, 132.544 238.502, 143.241 234.111 C 148.774 231.840, 168 220.393, 168 219.370 C 168 218.433, 166.119 219.151, 164.980 220.524 M 64.895 231.197 C 64.272 232.360, 64.225 232.979, 64.785 232.633 C 65.327 232.298, 69.309 233.660, 73.635 235.659 C 80.718 238.933, 132.105 257.833, 157.500 266.505 C 167.376 269.877, 237.112 291.953, 256.500 297.845 C 290.570 308.199, 322.676 312.026, 342.500 308.095 C 352.401 306.132, 370.092 299.697, 373.004 297 C 376.069 294.160, 384.448 289.466, 383.387 291.183 C 382.962 291.870, 383.141 292.031, 383.845 291.595 C 384.480 291.203, 385 290.249, 385 289.476 C 385 288.703, 385.968 287.552, 387.152 286.919 C 388.928 285.968, 389.206 286.022, 388.744 287.224 C 388.336 288.287, 388.886 288.644, 390.775 288.543 C 392.200 288.467, 393.566 287.801, 393.812 287.063 C 394.118 286.147, 393.822 285.985, 392.880 286.553 C 391.773 287.219, 391.784 287.034, 392.936 285.616 C 394 284.305, 394.069 283.661, 393.202 283.125 C 391.486 282.064, 399.673 276.052, 402.177 276.534 C 403.609 276.810, 404.023 276.503, 403.624 275.462 C 402.950 273.707, 407.389 270.504, 409.063 271.539 C 409.900 272.056, 409.843 272.485, 408.857 273.110 C 407.800 273.779, 407.887 273.973, 409.250 273.985 C 411.277 274.002, 411.505 272.905, 409.822 271.222 C 405.537 266.937, 443.199 260.372, 450.316 264.164 C 452.230 265.184, 452.343 265.137, 451.233 263.790 C 449.491 261.678, 442.490 260.501, 414 257.530 C 400.525 256.125, 385.450 254.544, 380.500 254.016 C 369.472 252.839, 364.706 253.715, 339.500 261.550 C 329.600 264.627, 320.259 267.524, 318.743 267.988 C 316.734 268.603, 316.176 268.515, 316.685 267.666 C 317.069 267.025, 316.623 267.118, 315.692 267.872 C 314.325 268.982, 314 268.993, 314 267.931 C 314 267.112, 313.407 267.349, 312.426 268.559 C 311.560 269.626, 311.143 269.825, 311.500 269 C 311.877 268.128, 311.520 268.271, 310.648 269.341 C 309.598 270.629, 308.487 270.972, 306.948 270.484 C 305.612 270.060, 304.986 270.168, 305.351 270.759 C 305.704 271.331, 304.743 271.591, 303.020 271.391 C 301.407 271.203, 299.852 271.430, 299.564 271.896 C 299.277 272.361, 297.614 272.576, 295.871 272.373 C 294.127 272.170, 292.081 272.518, 291.324 273.146 C 289.025 275.054, 265.170 275.126, 264.108 273.228 C 263.195 271.597, 258.353 270.620, 257.558 271.907 C 257.297 272.328, 258.396 272.595, 260 272.500 C 261.604 272.405, 262.712 272.657, 262.462 273.062 C 262.212 273.466, 258.743 273.605, 254.754 273.371 C 246.608 272.892, 243.536 270.927, 246.774 268.268 C 247.724 267.489, 247.938 267.137, 247.250 267.485 C 246.563 267.833, 246 267.641, 246 267.059 C 246 265.797, 243.045 265.685, 241.166 266.876 C 240.099 267.553, 240.159 267.847, 241.468 268.349 C 242.414 268.712, 242.849 268.565, 242.500 268 C 242.168 267.463, 242.500 267.254, 243.237 267.538 C 243.975 267.821, 244.646 268.945, 244.728 270.036 C 244.861 271.805, 244.714 271.857, 243.367 270.510 C 241.670 268.812, 239.541 268.448, 240.513 270.021 C 240.899 270.646, 239.978 270.954, 238.141 270.814 C 236.490 270.688, 235.363 270.221, 235.638 269.776 C 235.913 269.331, 236.670 269.266, 237.319 269.630 C 238.183 270.115, 238.175 269.943, 237.292 268.989 C 236.374 267.997, 235.753 267.960, 234.699 268.835 C 233.172 270.102, 226.689 269.578, 221 267.728 C 219.075 267.102, 217.129 266.693, 216.676 266.820 C 216.222 266.946, 216.107 266.636, 216.420 266.130 C 216.733 265.624, 216.339 264.960, 215.545 264.656 C 214.531 264.267, 214.287 264.584, 214.725 265.725 C 215.220 267.016, 214.955 267.180, 213.424 266.529 C 212.366 266.079, 210.746 265.680, 209.823 265.641 C 208.901 265.603, 208.413 265.141, 208.737 264.616 C 209.081 264.060, 208.586 263.945, 207.553 264.341 C 205.816 265.008, 199.199 264.001, 178 259.847 C 165.182 257.334, 164.859 257.155, 169.104 254.893 C 170.972 253.898, 172.140 253.065, 171.700 253.042 C 171.261 253.019, 169.545 253.701, 167.888 254.558 C 162.805 257.186, 156.450 256.544, 138 251.537 C 104.510 242.448, 83.201 236.093, 74.622 232.633 C 66.105 229.199, 65.974 229.180, 64.895 231.197 M 70.644 240.485 C 70.020 242.111, 73.328 244.402, 75.305 243.714 C 75.962 243.485, 77.772 244.356, 79.327 245.649 C 80.881 246.942, 82.929 248, 83.877 248 C 84.825 248, 86.027 248.413, 86.550 248.917 C 87.073 249.422, 89.023 250.067, 90.884 250.351 C 92.745 250.635, 94.747 251.347, 95.334 251.934 C 95.920 252.520, 97.408 253, 98.641 253 C 99.874 253, 101.160 253.450, 101.500 254 C 101.840 254.550, 102.936 255, 103.937 255 C 104.937 255, 106.332 255.695, 107.038 256.546 C 107.743 257.396, 108.988 257.835, 109.805 257.521 C 110.621 257.208, 112.069 257.657, 113.021 258.519 C 114.594 259.943, 114.809 259.940, 115.365 258.491 C 115.740 257.515, 115.569 257.148, 114.926 257.546 C 114.347 257.903, 113.040 257.441, 112.021 256.519 C 111.002 255.597, 108.996 254.714, 107.562 254.556 C 106.129 254.399, 104.178 253.603, 103.228 252.787 C 100.625 250.553, 98.379 250.022, 97.063 251.328 C 96.157 252.227, 96.037 252.092, 96.548 250.750 C 97.176 249.099, 95.588 248.370, 92.592 248.934 C 92.092 249.029, 91.417 248.709, 91.092 248.224 C 90.367 247.145, 84.086 244, 82.655 244 C 82.085 244, 82.491 244.712, 83.559 245.582 C 85.335 247.029, 85.344 247.114, 83.668 246.582 C 82.661 246.262, 81.648 246, 81.418 246 C 81.188 246, 81 245.298, 81 244.441 C 81 243.584, 80.601 243.129, 80.113 243.430 C 79.626 243.731, 78.653 243.287, 77.952 242.442 C 76.932 241.213, 76.512 241.165, 75.854 242.203 C 75.230 243.186, 75.027 243.102, 75.015 241.857 C 75.007 240.953, 74.288 239.941, 73.418 239.607 C 71.292 238.791, 71.295 238.790, 70.644 240.485 M 382.500 256.713 C 379.425 257.453, 378.534 258.734, 379.927 260.413 C 380.976 261.677, 380.475 262.237, 376.707 264.008 C 374.252 265.162, 371.401 266.107, 370.372 266.108 C 369.342 266.109, 366.310 266.048, 363.633 265.972 C 360.890 265.894, 358.272 266.370, 357.633 267.063 C 356.785 267.985, 356.796 268.127, 357.681 267.630 C 358.330 267.266, 359.120 267.386, 359.437 267.897 C 359.763 268.426, 358.741 268.627, 357.068 268.363 C 353.592 267.816, 351.454 270.690, 352.434 274.593 C 352.792 276.021, 352.600 277, 351.960 277 C 351.367 277, 351.101 277.355, 351.369 277.788 C 351.637 278.221, 350.682 278.673, 349.247 278.792 C 347.811 278.910, 345.619 279.675, 344.375 280.490 C 342.101 281.980, 336 281.590, 336 279.954 C 336 278.768, 330.244 277.729, 328.774 278.651 C 328.073 279.090, 326.803 279.336, 325.951 279.196 C 323.885 278.858, 320.164 282.940, 319.073 286.744 C 318.321 289.366, 318.608 290.292, 321.057 293.154 C 322.631 294.994, 323.937 296.107, 323.959 295.628 C 323.982 295.148, 324.761 295.373, 325.692 296.128 C 326.842 297.060, 327.143 297.099, 326.633 296.250 C 326.220 295.563, 326.310 295, 326.834 295 C 327.358 295, 328.045 295.675, 328.362 296.500 C 328.678 297.325, 329.803 298, 330.862 298 C 333.070 298, 334.461 295.403, 332.802 294.378 C 332.082 293.933, 331.976 294.152, 332.500 295 C 333.069 295.920, 332.921 296.069, 332.003 295.502 C 329.927 294.219, 333.782 291.813, 336.007 293.004 C 336.958 293.513, 338.093 293.608, 338.529 293.215 C 338.964 292.822, 338.992 293.070, 338.591 293.766 C 338.190 294.463, 337.474 294.793, 337 294.500 C 336.526 294.207, 335.875 294.394, 335.553 294.915 C 335.231 295.436, 335.394 296.125, 335.915 296.447 C 336.436 296.769, 337.149 296.568, 337.500 296 C 337.851 295.432, 338.497 295.189, 338.935 295.460 C 339.374 295.731, 340.538 295.063, 341.521 293.976 C 342.900 292.453, 342.988 291.993, 341.905 291.968 C 340.911 291.946, 341.050 291.520, 342.383 290.510 C 343.770 289.461, 344.114 288.320, 343.688 286.188 C 343.010 282.799, 344.374 281.024, 347.108 281.738 C 348.953 282.221, 348.961 282.315, 347.273 283.694 C 346.298 284.490, 346.962 284.338, 348.750 283.355 C 350.538 282.373, 352 281.189, 352 280.725 C 352 280.262, 352.419 280.141, 352.931 280.457 C 353.443 280.774, 354.120 280.615, 354.435 280.105 C 355.094 279.038, 356.879 279.169, 358.905 280.433 C 359.947 281.083, 360.096 280.947, 359.483 279.905 C 358.995 279.075, 359.476 279.217, 360.657 280.250 C 362.871 282.187, 366 282.591, 366 280.941 C 366 280.359, 365.601 280.129, 365.113 280.430 C 364.626 280.731, 363.704 280.348, 363.065 279.578 C 362.273 278.624, 362.235 277.973, 362.948 277.532 C 364.846 276.359, 367.948 276.107, 368.548 277.078 C 368.873 277.603, 369.670 277.728, 370.319 277.356 C 370.969 276.984, 371.149 277.065, 370.721 277.535 C 369.564 278.807, 366.881 279.001, 367.650 277.758 C 368.030 277.143, 367.838 276.982, 367.198 277.378 C 366.587 277.755, 366.341 278.725, 366.651 279.532 C 367.270 281.147, 368.263 281.404, 369.417 280.250 C 369.829 279.837, 370.579 279.444, 371.083 279.375 C 371.587 279.306, 372.402 279.194, 372.893 279.125 C 373.384 279.056, 374.043 278.330, 374.357 277.512 C 374.671 276.694, 374.438 276.131, 373.839 276.262 C 373.240 276.393, 372.523 275.875, 372.245 275.111 C 371.952 274.304, 372.185 273.996, 372.801 274.377 C 373.385 274.738, 374.149 274.568, 374.500 274 C 374.851 273.432, 375.557 273.226, 376.069 273.543 C 376.971 274.100, 377.459 272.543, 377.024 270.500 C 376.221 266.736, 376.189 265.999, 376.847 266.405 C 377.255 266.657, 379.380 266.062, 381.570 265.081 C 384.459 263.788, 387.120 263.428, 391.264 263.772 C 397.981 264.329, 403.102 262.033, 400.944 259.433 C 400.290 258.645, 400.148 257.944, 400.628 257.875 C 401.107 257.806, 399.475 257.389, 397 256.949 C 392.056 256.069, 385.613 255.964, 382.500 256.713 M 119.667 259.667 C 118.451 260.882, 118.973 261.572, 121.235 261.743 C 122.465 261.835, 123.627 262.381, 123.819 262.956 C 124.010 263.530, 124.778 264, 125.526 264 C 126.274 264, 128.490 264.947, 130.451 266.104 C 133.977 268.184, 137.770 268.055, 136.438 265.900 C 135.973 265.147, 136.437 265.004, 137.868 265.458 C 139.521 265.983, 139.856 265.788, 139.390 264.574 C 138.966 263.469, 138.322 263.280, 137.172 263.924 C 136.191 264.473, 134.851 264.455, 133.776 263.880 C 132.799 263.357, 132 263.226, 132 263.587 C 132 263.949, 131.402 263.749, 130.672 263.142 C 129.941 262.536, 128.478 261.896, 127.422 261.721 C 126.365 261.546, 124.517 260.862, 123.316 260.201 C 120.781 258.807, 120.559 258.775, 119.667 259.667 M 309.525 289.814 C 306.789 289.987, 304.017 290.571, 303.364 291.113 C 302.712 291.654, 301.944 291.718, 301.658 291.255 C 300.925 290.069, 291.994 290.303, 291.997 291.508 C 291.999 292.054, 292.337 292.534, 292.750 292.575 C 293.163 292.616, 295.587 292.997, 298.138 293.421 C 301.441 293.971, 303.455 293.801, 305.138 292.829 C 307.998 291.177, 312.597 291.166, 312.250 292.813 C 312.113 293.466, 312.705 294, 313.567 294 C 314.725 294, 314.959 293.412, 314.464 291.750 C 313.804 289.537, 313.819 289.533, 315.365 291.500 C 316.229 292.600, 316.958 293.050, 316.984 292.500 C 317.009 291.950, 317.508 292.175, 318.091 293 C 318.794 293.993, 319.034 294.053, 318.801 293.175 C 318.608 292.446, 318.143 291.996, 317.768 292.175 C 317.393 292.354, 316.504 291.825, 315.793 291 C 314.886 289.947, 313.016 289.594, 309.525 289.814 M 45.061 294.131 C 43.660 296.026, 42.502 296.812, 42.091 296.147 C 41.705 295.522, 40.938 296.325, 40.295 298.028 C 39.452 300.263, 39.462 301.004, 40.337 301.015 C 41.015 301.024, 40.874 301.471, 40 302.085 C 38.013 303.483, 51.989 302.614, 57.344 301.008 C 63.185 299.255, 61.327 299.041, 53.500 300.564 C 45.657 302.091, 41.979 302.338, 43.537 301.235 C 44.622 300.466, 48.208 291.874, 47.668 291.335 C 47.498 291.164, 46.324 292.422, 45.061 294.131 M 22 326.540 C 22 331.152, 31.946 337.189, 33.382 333.448 C 33.709 332.594, 33.584 332.139, 33.105 332.435 C 32.325 332.917, 29.301 327.240, 29.675 326 C 29.759 325.725, 28.066 325.478, 25.913 325.451 C 23.627 325.423, 22 325.876, 22 326.540 M 79.062 332.750 C 77.075 334.360, 77.013 334.739, 78.291 337.500 C 79.055 339.150, 80.149 341.625, 80.721 343 C 81.748 345.465, 81.773 345.448, 82.477 341.837 C 82.869 339.822, 82.834 337.122, 82.399 335.837 C 81.964 334.552, 81.716 332.938, 81.848 332.250 C 82.169 330.575, 81.625 330.673, 79.062 332.750 M 64 339.736 C 62.556 340.101, 57.979 345.868, 55.127 350.917 C 53.913 353.065, 53.964 353.501, 55.568 354.674 C 58.368 356.721, 61.643 356.480, 59.880 354.356 C 58.662 352.888, 58.770 352.792, 60.883 353.463 C 62.512 353.980, 63.037 353.869, 62.566 353.107 C 62.190 352.498, 62.359 352, 62.941 352 C 63.523 352, 63.947 351.663, 63.882 351.250 C 63.567 349.257, 64.101 347.944, 65 348.500 C 65.550 348.840, 66 348.165, 66 347 C 66 345.835, 66.450 345.160, 67 345.500 C 68.469 346.408, 68.229 341.417, 66.750 340.301 C 66.063 339.782, 64.825 339.528, 64 339.736 M 53 361.156 C 48.875 361.666, 43.025 362.343, 40 362.660 C 33.374 363.355, 35.251 364.400, 45 365.444 C 48.575 365.827, 55.325 366.777, 60 367.555 C 80.554 370.974, 88.902 371.287, 164 371.448 C 232.865 371.596, 241.609 371.802, 263.500 373.796 C 290.977 376.300, 293.818 376.418, 292.402 375.002 C 291.853 374.453, 287.347 373.856, 282.387 373.675 C 277.427 373.494, 272.807 372.999, 272.120 372.574 C 271.433 372.149, 269.324 372.092, 267.435 372.446 C 265.301 372.846, 264 372.695, 264 372.045 C 264 371.470, 262.538 370.994, 260.750 370.987 C 258.962 370.980, 253.225 370.057, 248 368.937 C 221.951 363.351, 214.546 363.151, 181 367.130 C 176.875 367.619, 158.548 368.289, 140.274 368.618 C 102.819 369.293, 92.973 368.567, 75.542 363.848 C 61.368 360.011, 61.815 360.065, 53 361.156 M 374.780 363.573 C 373.285 364.376, 370.810 365.202, 369.280 365.411 C 367.751 365.619, 364.700 366.445, 362.500 367.245 C 360.300 368.046, 357.962 368.514, 357.305 368.285 C 356.648 368.057, 355.139 368.390, 353.952 369.026 C 351.680 370.241, 342.592 371.983, 335 372.658 C 332.525 372.877, 328.250 373.274, 325.500 373.539 C 322.750 373.805, 317.033 374.146, 312.796 374.298 C 308.559 374.450, 304.734 374.957, 304.296 375.425 C 303.314 376.474, 347.267 375.424, 363 374.022 C 388.035 371.792, 394.365 369.012, 385.367 364.196 C 381.814 362.295, 377.624 362.048, 374.780 363.573" stroke="none" fill="#000" fill-rule="evenodd"/>
	<path fill-opacity="0.524" d="M 66.192 230.761 C 66.887 234.368, 132.770 258.601, 197 278.873 C 253.089 296.575, 264.667 300.088, 276.614 303.027 C 316.558 312.856, 351.171 310.473, 372.565 296.421 C 376.267 293.990, 379.683 292, 380.155 292 C 380.627 292, 381.991 290.875, 383.187 289.500 C 384.382 288.125, 385.932 287, 386.631 287 C 387.329 287, 388.359 286.212, 388.920 285.250 C 389.481 284.288, 389.953 283.938, 389.970 284.473 C 389.986 285.007, 390.665 284.496, 391.477 283.336 C 393.419 280.564, 409.397 269.159, 414.500 266.902 C 416.700 265.929, 423.900 264.407, 430.500 263.520 C 443.615 261.756, 446.680 261.022, 440.500 261.126 C 438.300 261.163, 436.050 261.080, 435.500 260.941 C 434.950 260.801, 433.375 260.585, 432 260.459 C 430.625 260.333, 427.250 259.950, 424.500 259.606 C 421.750 259.263, 420.175 259.247, 421 259.570 C 421.825 259.894, 423.175 260.415, 424 260.728 C 424.825 261.041, 426.625 261.187, 428 261.051 C 429.375 260.916, 430.144 261.168, 429.709 261.610 C 429.042 262.289, 425.084 262.671, 414.728 263.055 C 413.754 263.091, 413.215 263.539, 413.530 264.049 C 413.846 264.559, 413.464 264.731, 412.681 264.431 C 411.898 264.131, 410.554 264.589, 409.693 265.450 C 408.728 266.414, 407.888 266.629, 407.505 266.008 C 407.162 265.453, 406.403 265, 405.819 265 C 405.191 265, 405.318 265.682, 406.128 266.664 C 407.368 268.168, 407.290 268.216, 405.316 267.164 C 402.600 265.717, 400.832 265.672, 403.308 267.113 C 405.017 268.107, 404.995 268.270, 402.905 270.082 C 400.059 272.551, 399.911 272.534, 394.493 269.098 L 389.917 266.196 393.708 266.268 C 395.794 266.308, 398.388 266.939, 399.473 267.670 C 402.560 269.751, 403.787 269.184, 401 266.965 C 399.495 265.766, 399.196 265.220, 400.250 265.594 C 401.216 265.936, 402 265.732, 402 265.138 C 402 264.547, 402.693 264.329, 403.541 264.654 C 404.496 265.021, 404.971 264.752, 404.791 263.946 C 404.603 263.108, 405.701 262.571, 407.880 262.434 C 410.328 262.280, 410.880 262.492, 409.880 263.205 C 408.876 263.921, 409.044 263.992, 410.500 263.465 C 411.600 263.067, 413.278 262.659, 414.230 262.558 C 415.181 262.457, 416.242 262.092, 416.587 261.746 C 416.932 261.401, 415.802 261.297, 414.075 261.516 C 412.043 261.773, 411.166 261.541, 411.589 260.857 C 412.026 260.149, 411.563 260.163, 410.186 260.900 C 407.539 262.317, 406.700 262.295, 407.605 260.830 C 408.084 260.056, 407.793 259.865, 406.747 260.267 C 405.870 260.603, 404.939 260.284, 404.658 259.550 C 404.318 258.666, 404.751 258.384, 405.962 258.700 C 406.959 258.961, 408.052 258.724, 408.393 258.174 C 408.768 257.567, 407.731 257.280, 405.755 257.444 C 401.024 257.838, 401.005 257.849, 401.694 259.645 C 402.766 262.439, 399.208 264, 391.769 264 C 382.105 264, 376.933 266.639, 377.583 271.239 C 378.114 274.998, 376.896 276.874, 371.982 279.870 C 368.346 282.087, 360.729 282.747, 358.087 281.075 C 356.221 279.894, 343.993 285.819, 344.668 287.577 C 345.461 289.644, 342.155 294.869, 339.033 296.483 C 334.826 298.658, 327.154 298.420, 323.500 296 C 320.836 294.236, 318.786 294.012, 305.191 294.007 C 296.771 294.003, 290.101 293.645, 290.369 293.212 C 290.637 292.778, 288.418 292.503, 285.438 292.601 C 282.457 292.698, 280.263 292.383, 280.561 291.901 C 280.860 291.418, 280.401 291.293, 279.541 291.623 C 276.913 292.631, 242.691 285.338, 232.446 281.586 C 227.234 279.677, 229.980 279.650, 237.500 281.536 C 244.840 283.376, 246.402 283.703, 256.500 285.514 C 260.900 286.303, 265.850 287.208, 267.500 287.524 C 269.150 287.840, 272.975 288.285, 276 288.512 C 279.025 288.739, 284.530 289.211, 288.233 289.562 C 291.935 289.913, 300.148 289.876, 306.483 289.480 C 317.052 288.819, 318 288.597, 318 286.780 C 318 285.691, 319.530 283.270, 321.400 281.400 C 325.373 277.427, 331.028 276.827, 338.044 279.634 C 341.214 280.903, 342.619 281.019, 344.315 280.155 C 345.517 279.542, 347.709 278.604, 349.187 278.069 C 351.343 277.290, 351.935 276.367, 352.187 273.398 C 352.675 267.631, 356.278 265.521, 365.823 265.412 C 375.398 265.303, 380.654 263.091, 378.942 259.892 C 378.022 258.173, 378.182 257.765, 379.960 257.300 C 381.977 256.773, 381.954 256.689, 379.420 255.374 C 373.409 252.256, 364.121 253.954, 335.212 263.459 C 297.040 276.010, 275.050 277.813, 237.500 271.473 C 230.555 270.300, 185.549 261.736, 174.397 259.465 C 167.741 258.109, 160.991 256.999, 159.397 256.997 C 157.804 256.996, 149.975 255.190, 142 252.984 C 134.025 250.778, 120.750 247.129, 112.500 244.875 C 95.045 240.105, 75.451 233.748, 69.816 231.025 C 66.308 229.330, 65.911 229.301, 66.192 230.761 M 369.857 255.890 C 370.960 256.589, 370.971 256.900, 369.916 257.552 C 369.166 258.016, 368.460 257.879, 368.242 257.227 C 367.981 256.444, 367.098 256.393, 365.349 257.057 C 363.965 257.584, 362.350 257.717, 361.762 257.353 C 361.096 256.941, 360.986 257.168, 361.471 257.953 C 362.051 258.891, 361.674 259.031, 360 258.500 C 358.314 257.965, 357.947 258.106, 358.539 259.063 C 359.100 259.971, 358.847 260.155, 357.664 259.701 C 356.749 259.350, 356 259.485, 356 260 C 356 260.515, 355.251 260.650, 354.336 260.299 C 353.120 259.832, 352.895 260.021, 353.500 261 C 354.102 261.975, 353.882 262.169, 352.692 261.712 C 351.792 261.367, 349.619 261.586, 347.862 262.198 L 344.667 263.312 346.944 265.156 C 349.499 267.225, 351.498 267.615, 350.395 265.830 C 349.909 265.043, 350.217 264.869, 351.336 265.299 C 353.506 266.132, 353.463 265.102, 351.250 263.279 C 349.614 261.931, 349.630 261.882, 351.500 262.533 C 354.782 263.676, 360.627 264.008, 358.950 262.956 C 358.153 262.455, 356.600 262.282, 355.500 262.571 C 353.631 263.061, 353.620 263.021, 355.324 261.957 C 356.694 261.101, 357.860 261.113, 360.013 262.005 C 361.590 262.658, 363.319 262.921, 363.856 262.589 C 364.393 262.257, 366.060 262.452, 367.560 263.023 C 371.020 264.338, 377.160 262.581, 376.363 260.504 C 376.064 259.726, 375.146 259.390, 374.253 259.733 C 373.145 260.158, 372.908 259.957, 373.461 259.063 C 374.052 258.107, 373.653 257.951, 371.875 258.441 C 369.848 259, 369.759 258.933, 371.268 257.988 C 372.240 257.379, 373.815 256.959, 374.768 257.055 C 377.883 257.370, 379.129 257.018, 378.500 256 C 378.160 255.450, 375.771 255.007, 373.191 255.015 C 370.184 255.025, 368.987 255.339, 369.857 255.890 M 386.559 267.582 C 388.557 269.210, 387.888 269.169, 383.500 267.393 C 382.675 267.059, 382 267.254, 382 267.826 C 382 268.397, 383.012 269.177, 384.250 269.559 C 385.488 269.940, 388.276 271.546, 390.447 273.126 C 392.618 274.707, 394.810 276, 395.319 276 C 396.877 276, 393.827 272.962, 390.573 271.273 C 388.883 270.395, 388.049 269.492, 388.720 269.265 C 389.392 269.039, 391.541 270.074, 393.498 271.566 C 395.454 273.058, 397.293 274.040, 397.585 273.749 C 398.196 273.138, 393.970 270.020, 389.300 267.634 C 385.244 265.563, 384.054 265.541, 386.559 267.582 M 301 275.953 C 301 276.478, 302.141 277.715, 303.536 278.703 C 309.598 282.997, 311.075 284.259, 310.598 284.735 C 310.319 285.014, 307.762 283.388, 304.915 281.121 C 302.068 278.855, 299.010 277.024, 298.119 277.052 C 296.943 277.091, 297.182 277.569, 298.991 278.802 C 300.361 279.736, 303.061 281.897, 304.991 283.604 C 308.120 286.372, 312.719 287.972, 311.397 285.833 C 310.701 284.707, 311.729 284.785, 314.066 286.035 C 315.399 286.749, 316 286.749, 316 286.035 C 316 285.466, 315.617 285, 315.148 285 C 314.680 285, 312.906 283.762, 311.206 282.250 C 304.209 276.023, 301 274.043, 301 275.953 M 78.500 366.430 C 86.842 370.721, 95.553 371.145, 169 370.833 C 227.640 370.583, 238.520 370.772, 251.890 372.273 C 260.355 373.223, 268.417 374, 269.807 374 C 274.025 374, 271.377 372.747, 266.277 372.329 C 260.162 371.829, 256.592 371.301, 251 370.070 C 223.380 363.989, 215.237 363.580, 185 366.755 C 141.282 371.346, 93.289 370.364, 75.500 364.515 C 74.400 364.153, 75.750 365.015, 78.500 366.430 M 351.811 370.303 C 349.472 371.295, 346.636 371.874, 345.509 371.592 C 344.382 371.309, 341.669 371.700, 339.480 372.461 C 337.291 373.222, 335.111 373.468, 334.635 373.007 C 334.159 372.547, 331.947 372.813, 329.719 373.599 C 327.399 374.418, 324.279 374.768, 322.417 374.418 C 320.600 374.078, 318.356 374.313, 317.332 374.951 C 315.923 375.830, 318.036 375.959, 326.500 375.508 C 348.776 374.323, 364.639 371.771, 363.848 369.500 C 363.288 367.890, 356.421 368.348, 351.811 370.303" stroke="none" fill="#000" fill-rule="evenodd"/>
</svg>